<svg width="1728" height="386" viewBox="0 0 1728 386" fill="none" xmlns="http://www.w3.org/2000/svg">
<g clip-path="url(#clip0_618_44)">
<rect width="1728" height="386" fill="white"/>
<path d="M958.868 386.181C956.736 386.181 956.112 383.36 958.058 382.488C976.338 374.287 1022.04 354.804 1056.5 348.681C1083.16 343.945 1101.21 350.593 1129.75 348.681C1156.77 346.872 1172.35 346.717 1198.5 339.681C1223.36 332.992 1234.13 319.072 1259.5 314.681C1287.46 309.841 1303.62 320.11 1332 319.681C1393.53 318.751 1425.6 297.518 1486.5 288.681C1541.05 280.766 1572.67 284.511 1627 275.181C1666.08 268.471 1691.3 233.505 1726 252.681C1771.63 277.897 1726 386.181 1726 386.181H958.868Z" fill="#4831D4"/>
<path d="M1138.5 370.745C1138.5 375.992 1133 376.245 1129 370.745C1123.75 370.745 1120 375.992 1120 370.745C1120 365.498 1123.75 361.245 1129 361.245C1132 356.745 1138.5 365.498 1138.5 370.745Z" fill="white"/>
<path d="M1318.38 351.5C1318.38 355.918 1308.71 354 1308.71 361.5C1304.3 361.5 1295.38 358.418 1295.38 354C1295.38 349.582 1300.42 335.445 1308.71 337C1315.4 338.254 1318.38 347.082 1318.38 351.5Z" fill="white"/>
<path d="M1526 325C1526 336.046 1521.5 359 1506 345C1490.5 331 1486 336.046 1486 325C1486 313.954 1494.95 305 1506 305C1517.05 305 1526 313.954 1526 325Z" fill="white"/>
<path d="M1697.02 312.024C1697.02 324.739 1703.22 344 1690.5 344C1677.78 344 1659.03 316.628 1650.98 312.024C1642.92 307.419 1661.28 289 1674 289C1686.72 289 1705.08 303.198 1697.02 312.024Z" fill="white"/>
</g>
<defs>
<clipPath id="clip0_618_44">
<rect width="1728" height="386" fill="white"/>
</clipPath>
</defs>
</svg>
