<svg width="28" height="28" viewBox="0 0 28 28" fill="none" xmlns="http://www.w3.org/2000/svg">
<mask id="mask0_690_32" style="mask-type:alpha" maskUnits="userSpaceOnUse" x="0" y="0" width="28" height="28">
<rect width="28" height="28" fill="#D9D9D9"/>
</mask>
<g mask="url(#mask0_690_32)">
<path d="M9.80016 19.8333L14.0002 15.6333L18.2002 19.8333L19.8335 18.1999L15.6335 13.9999L19.8335 9.79992L18.2002 8.16659L14.0002 12.3666L9.80016 8.16659L8.16683 9.79992L12.3668 13.9999L8.16683 18.1999L9.80016 19.8333ZM14.0002 25.6666C12.3863 25.6666 10.8696 25.3603 9.45016 24.7478C8.03072 24.1353 6.796 23.3041 5.746 22.2541C4.696 21.2041 3.86475 19.9694 3.25225 18.5499C2.63975 17.1305 2.3335 15.6138 2.3335 13.9999C2.3335 12.386 2.63975 10.8694 3.25225 9.44992C3.86475 8.03047 4.696 6.79575 5.746 5.74575C6.796 4.69575 8.03072 3.8645 9.45016 3.252C10.8696 2.6395 12.3863 2.33325 14.0002 2.33325C15.6141 2.33325 17.1307 2.6395 18.5502 3.252C19.9696 3.8645 21.2043 4.69575 22.2543 5.74575C23.3043 6.79575 24.1356 8.03047 24.7481 9.44992C25.3606 10.8694 25.6668 12.386 25.6668 13.9999C25.6668 15.6138 25.3606 17.1305 24.7481 18.5499C24.1356 19.9694 23.3043 21.2041 22.2543 22.2541C21.2043 23.3041 19.9696 24.1353 18.5502 24.7478C17.1307 25.3603 15.6141 25.6666 14.0002 25.6666ZM14.0002 23.3333C16.6057 23.3333 18.8127 22.4291 20.621 20.6208C22.4293 18.8124 23.3335 16.6055 23.3335 13.9999C23.3335 11.3944 22.4293 9.18742 20.621 7.37909C18.8127 5.57075 16.6057 4.66659 14.0002 4.66659C11.3946 4.66659 9.18766 5.57075 7.37933 7.37909C5.571 9.18742 4.66683 11.3944 4.66683 13.9999C4.66683 16.6055 5.571 18.8124 7.37933 20.6208C9.18766 22.4291 11.3946 23.3333 14.0002 23.3333Z" fill="#1C1B1F"/>
</g>
</svg>
