<svg width="466" height="467" viewBox="0 0 466 467" fill="none" xmlns="http://www.w3.org/2000/svg">
<path d="M124 0V52.1893H138.992V64.8422L151.645 52.1893H219.031V0H124Z" fill="#EBEBEB"/>
<path d="M141 33.4187V22.9766C141 22.7176 141.103 22.4692 141.286 22.286C141.469 22.1029 141.718 22 141.977 22H144.488C145.109 22.0039 145.717 22.1795 146.245 22.5074C146.773 22.8353 147.2 23.3026 147.478 23.8579C147.757 24.4132 147.877 25.0347 147.824 25.6538C147.772 26.2728 147.55 26.8654 147.182 27.366C147.725 27.71 148.173 28.1852 148.484 28.7479C148.795 29.3105 148.96 29.9425 148.963 30.5855C148.965 31.0839 148.868 31.5777 148.678 32.0386C148.488 32.4994 148.209 32.9183 147.857 33.2712C147.505 33.6242 147.087 33.9042 146.627 34.0952C146.167 34.2863 145.673 34.3846 145.175 34.3846H141.955C141.702 34.3791 141.46 34.2752 141.282 34.0949C141.104 33.9147 141.003 33.6722 141 33.4187ZM142.964 26.7972H144.488C144.674 26.7944 144.858 26.7549 145.028 26.6812C145.199 26.6074 145.354 26.5007 145.483 26.3671C145.613 26.2336 145.715 26.0758 145.783 25.9029C145.852 25.7299 145.886 25.5451 145.883 25.3591C145.884 25.1755 145.849 24.9934 145.78 24.8235C145.71 24.6536 145.607 24.4992 145.478 24.3694C145.348 24.2395 145.193 24.1368 145.023 24.0672C144.854 23.9976 144.671 23.9625 144.488 23.9639H142.964V26.7972ZM142.964 32.4207H145.175C145.636 32.3853 146.067 32.1772 146.381 31.838C146.695 31.4987 146.87 31.0533 146.87 30.5909C146.87 30.1285 146.695 29.6831 146.381 29.3438C146.067 29.0045 145.636 28.7964 145.175 28.7611H142.964V32.4207Z" fill="white"/>
<path d="M161.659 32.9144C161.741 33.1621 161.721 33.432 161.604 33.6652C161.488 33.8984 161.284 34.0761 161.037 34.1593C160.911 34.1965 160.781 34.2146 160.65 34.213C160.407 34.2157 160.169 34.1487 159.963 34.0198C159.729 33.8581 159.535 33.6453 159.395 33.3973C159.11 32.7194 158.985 31.985 159.03 31.251C159.023 30.9831 158.949 30.7212 158.815 30.489C158.675 30.2812 158.492 30.1057 158.278 29.9739C157.976 29.779 157.642 29.6375 157.291 29.5553H155.209V33.3973C155.203 33.6573 155.095 33.9046 154.909 34.0854C154.722 34.2663 154.471 34.3661 154.211 34.3632C154.083 34.3646 153.957 34.3407 153.838 34.2928C153.72 34.2449 153.612 34.174 153.521 34.0841C153.43 33.9943 153.358 33.8874 153.309 33.7695C153.26 33.6516 153.234 33.5251 153.234 33.3973V22.9767C153.233 22.848 153.257 22.7204 153.306 22.6012C153.354 22.4821 153.426 22.3739 153.517 22.2829C153.608 22.1919 153.716 22.12 153.836 22.0715C153.955 22.0229 154.082 21.9986 154.211 22.0001H157.377C158.378 22.0114 159.334 22.4185 160.036 23.1323C160.737 23.8462 161.128 24.8088 161.122 25.8099C161.122 26.3656 160.998 26.9142 160.759 27.4156C160.519 27.917 160.17 28.3584 159.738 28.7075C159.982 28.8875 160.193 29.1091 160.36 29.3621C160.747 29.9242 160.952 30.5905 160.951 31.2724C160.929 31.6314 160.95 31.9918 161.015 32.3456C161.159 32.3843 161.292 32.4558 161.404 32.5545C161.515 32.6532 161.603 32.7763 161.659 32.9144ZM159.18 25.8099C159.183 25.5685 159.138 25.329 159.047 25.1051C158.957 24.8813 158.823 24.6776 158.653 24.5059C158.484 24.3342 158.281 24.1979 158.059 24.1049C157.836 24.0119 157.597 23.964 157.355 23.964H155.209V27.6128H157.355C157.594 27.6143 157.83 27.5687 158.05 27.4789C158.271 27.3891 158.472 27.2566 158.641 27.0892C158.811 26.9218 158.945 26.7227 159.038 26.5031C159.13 26.2836 159.179 26.0481 159.18 25.8099Z" fill="white"/>
<path d="M172.799 31.4657H168.506L167.637 33.7623C167.566 33.946 167.44 34.1038 167.277 34.2149C167.115 34.326 166.922 34.3852 166.725 34.3848C166.611 34.4071 166.495 34.4071 166.381 34.3848C166.137 34.2931 165.939 34.1085 165.83 33.8712C165.722 33.6339 165.711 33.3632 165.802 33.1184L169.708 22.6333C169.785 22.4473 169.916 22.2891 170.085 22.1798C170.254 22.0705 170.452 22.0153 170.653 22.0216C170.852 22.0144 171.05 22.0694 171.217 22.179C171.384 22.2885 171.513 22.4473 171.586 22.6333L175.493 33.0648C175.583 33.3096 175.573 33.5802 175.464 33.8175C175.356 34.0548 175.158 34.2395 174.913 34.3311C174.804 34.3543 174.69 34.3543 174.581 34.3311C174.384 34.3356 174.191 34.2778 174.029 34.166C173.867 34.0542 173.745 33.8942 173.679 33.7087L172.799 31.4657ZM172.069 29.5232L170.642 25.7134L169.204 29.5232H172.069Z" fill="white"/>
<path d="M181.814 33.4188C181.811 33.6723 181.71 33.9148 181.531 34.095C181.353 34.2752 181.112 34.3791 180.858 34.3847C180.731 34.3861 180.604 34.3622 180.485 34.3142C180.367 34.2663 180.259 34.1954 180.168 34.1056C180.078 34.0158 180.006 33.9088 179.956 33.7909C179.907 33.673 179.882 33.5465 179.882 33.4188V23.1162C179.875 22.959 179.906 22.8026 179.974 22.6605C180.041 22.5183 180.142 22.3948 180.268 22.3005C180.477 22.1519 180.735 22.0911 180.988 22.1312C181.241 22.1714 181.468 22.3093 181.62 22.5152L187.33 30.4246V23.1376C187.333 22.8852 187.434 22.6438 187.613 22.4653C187.791 22.2868 188.032 22.1853 188.285 22.1825C188.54 22.1824 188.785 22.2824 188.968 22.4609C189.15 22.6394 189.256 22.8824 189.261 23.1376V33.4188C189.259 33.6759 189.154 33.9216 188.972 34.1024C188.789 34.2833 188.542 34.3847 188.285 34.3847C188.146 34.3827 188.01 34.3499 187.885 34.2887C187.761 34.2274 187.652 34.1392 187.566 34.0305C187.525 34.0031 187.492 33.9663 187.469 33.9232L181.814 26.0674V33.4188Z" fill="white"/>
<path d="M194.574 33.4188V22.9767C194.572 22.848 194.597 22.7204 194.645 22.6012C194.694 22.4821 194.766 22.3739 194.857 22.2829C194.948 22.1919 195.056 22.12 195.175 22.0715C195.294 22.0229 195.422 21.9986 195.55 22.0001H197.611C199.253 22.0001 200.828 22.6525 201.99 23.8137C203.151 24.975 203.803 26.5501 203.803 28.1924C203.803 29.8347 203.151 31.4097 201.99 32.571C200.828 33.7323 199.253 34.3847 197.611 34.3847H195.518C195.266 34.3791 195.026 34.2748 194.849 34.0943C194.673 33.9138 194.574 33.6713 194.574 33.4188ZM196.538 32.4207H197.611C198.732 32.4207 199.808 31.9753 200.601 31.1823C201.394 30.3893 201.839 29.3138 201.839 28.1924C201.839 27.0709 201.394 25.9954 200.601 25.2025C199.808 24.4095 198.732 23.964 197.611 23.964H196.538V32.4207Z" fill="white"/>
<path d="M225.703 465.314V353.627H193.614V326.561L166.548 353.627H22.3652V465.314H225.703Z" fill="white"/>
<path d="M225.703 465.314C225.81 464.241 226.25 354.035 226.325 353.004H225.703L193.614 352.897L194.355 353.627L194.451 326.518V324.5L193.013 325.928L165.872 352.929C169.371 352.114 21.5819 352.833 22.3546 352.532H21.2814V353.605L21.4101 465.292V466.215H22.3331C73.0199 466.033 174.994 465.636 225.671 465.303L225.703 465.314ZM225.703 465.314C175.027 464.97 73.0199 464.573 22.3653 464.391L23.2775 465.314L23.4063 353.627L22.3331 354.7L166.892 354.582L167.171 354.303L194.205 327.151L192.788 326.561L192.885 353.627V354.421H193.561L225.649 354.303L225.016 353.681L225.649 465.368L225.703 465.314Z" fill="#EBEBEB"/>
<path d="M74.4103 417.44C70.0223 415.025 68.4223 409.511 70.8367 405.123C73.251 400.735 78.7654 399.135 83.1534 401.549C87.5415 403.964 89.1414 409.478 86.7271 413.866C84.3128 418.254 78.7984 419.854 74.4103 417.44Z" fill="#EBEBEB"/>
<path d="M120.608 417.902C115.974 416.001 113.758 410.704 115.659 406.071C117.559 401.437 122.856 399.221 127.49 401.121C132.124 403.022 134.34 408.319 132.439 412.953C130.539 417.587 125.242 419.802 120.608 417.902Z" fill="#EBEBEB"/>
<path d="M168.228 418.505C163.257 417.895 159.721 413.371 160.331 408.4C160.94 403.429 165.464 399.893 170.435 400.503C175.406 401.112 178.942 405.636 178.333 410.607C177.723 415.579 173.199 419.114 168.228 418.505Z" fill="#EBEBEB"/>
<path d="M387.073 154.548C361.713 145.726 348.417 117.7 357.375 91.9491C366.332 66.198 394.151 52.4735 419.51 61.2946C444.87 70.1157 458.166 98.142 449.208 123.893C440.251 149.644 412.432 163.369 387.073 154.548Z" fill="#EBEBEB"/>
<path d="M441.275 107.298C441.414 128.525 424.522 146.018 403.541 146.362C398.535 146.429 393.565 145.5 388.921 143.628C384.278 141.757 380.052 138.981 376.491 135.462C372.93 131.942 370.104 127.75 368.178 123.129C366.252 118.508 365.264 113.549 365.271 108.543C365.132 87.3042 382.034 69.8219 403.005 69.4785C408.011 69.4116 412.98 70.3408 417.624 72.2121C422.268 74.0834 426.493 76.8594 430.055 80.3787C433.616 83.8979 436.442 88.0901 438.368 92.7115C440.294 97.3328 441.282 102.291 441.275 107.298Z" fill="white"/>
<path d="M430.671 107.47C430.741 114.795 427.927 121.854 422.837 127.123C417.747 132.392 410.789 135.447 403.466 135.63C399.859 135.676 396.278 135.003 392.933 133.653C389.588 132.302 386.544 130.3 383.98 127.762C381.415 125.225 379.381 122.203 377.995 118.872C376.609 115.541 375.899 111.968 375.906 108.36C375.837 101.035 378.65 93.9757 383.74 88.7069C388.83 83.4382 395.788 80.3826 403.112 80.1998C406.719 80.1557 410.299 80.8288 413.643 82.18C416.988 83.5313 420.031 85.5336 422.595 88.0708C425.159 90.608 427.193 93.6295 428.58 96.9597C429.966 100.29 430.677 103.862 430.671 107.47Z" fill="#EBEBEB"/>
<path d="M420.004 107.641C420.059 112.106 418.351 116.413 415.251 119.628C412.151 122.842 407.909 124.705 403.445 124.812C401.248 124.839 399.068 124.43 397.032 123.607C394.995 122.785 393.142 121.566 391.58 120.021C390.019 118.476 388.78 116.637 387.935 114.609C387.09 112.582 386.657 110.406 386.66 108.21C386.608 103.745 388.316 99.4399 391.416 96.2261C394.515 93.0122 398.756 91.1486 403.219 91.0389C405.415 91.0118 407.595 91.4215 409.632 92.244C411.669 93.0665 413.522 94.2855 415.083 95.8301C416.645 97.3748 417.884 99.2143 418.729 101.242C419.573 103.269 420.007 105.445 420.004 107.641Z" fill="white"/>
<path d="M410.71 107.791C410.745 109.782 409.987 111.705 408.605 113.137C407.222 114.57 405.328 115.396 403.337 115.432C402.356 115.449 401.381 115.271 400.47 114.907C399.558 114.543 398.728 114 398.029 113.312C397.33 112.623 396.774 111.802 396.396 110.897C396.017 109.991 395.823 109.019 395.825 108.038C395.793 106.049 396.552 104.129 397.934 102.699C399.316 101.268 401.209 100.444 403.198 100.408C404.179 100.389 405.153 100.566 406.065 100.929C406.976 101.292 407.806 101.833 408.505 102.521C409.205 103.208 409.76 104.029 410.139 104.934C410.517 105.839 410.712 106.81 410.71 107.791Z" fill="#EBEBEB"/>
<path d="M402.897 108.081L351.921 81.2727L352.307 80.5322L403.294 107.341L402.897 108.081Z" fill="#EBEBEB"/>
<path d="M348.905 82.5714L349.098 82.507L352.361 81.4982L345.921 78.1284L342.434 79.1909L348.905 82.5714Z" fill="#EBEBEB"/>
<path d="M345.149 73.9966L346.308 77.3879L352.747 80.7577C352.242 79.6772 351.86 78.5432 351.609 77.3771L345.149 73.9966Z" fill="#EBEBEB"/>
<path d="M404.85 107.083L403.509 109.498L399.924 109.197L402.275 107.276L402.511 104.25L404.85 107.083Z" fill="#EBEBEB"/>
<path d="M364.674 359.638L439.599 387.265L422.079 434.781L347.154 407.155L364.674 359.638Z" fill="#EBEBEB"/>
<path d="M364.649 359.616C366.613 363.629 368.673 367.536 370.669 371.507C372.665 375.478 374.769 379.352 376.851 383.247C378.997 387.311 381.179 391.361 383.397 395.396L383.59 395.772L389.461 406.503L389.761 407.008L390.298 406.815L401.684 402.522L402.092 402.372C406.385 400.74 410.678 399.088 414.971 397.381C419.042 395.714 423.145 394.051 427.28 392.391C431.38 390.663 435.479 389.032 439.579 387.25C435.447 388.549 431.326 389.976 427.205 391.35C423.084 392.724 418.941 394.183 414.82 395.643C410.238 397.263 405.634 398.916 401.041 400.612L390.706 404.4C388.924 401.18 387.132 397.961 385.34 394.816C382.936 390.524 380.532 386.317 378.085 382.088C375.939 378.311 373.706 374.576 371.474 370.798C369.242 367.021 366.956 363.286 364.649 359.616Z" fill="white"/>
<path d="M400.525 401.642C400.54 401.684 400.562 401.724 400.59 401.76L401.395 403.198C402.697 405.473 404.056 407.705 405.473 409.894C407.19 412.599 408.982 415.26 410.839 417.879C412.695 420.498 414.531 423.095 416.462 425.649C418.394 428.203 420.369 430.725 422.472 433.161C420.938 430.328 419.253 427.602 417.546 424.908C415.84 422.215 414.015 419.542 412.18 416.924C410.345 414.305 408.488 411.697 406.557 409.143C405.011 407.104 403.434 405.076 401.781 403.112C401.402 402.661 401.016 402.21 400.622 401.76C400.622 401.76 400.547 401.706 400.525 401.642Z" fill="white"/>
<path d="M347.864 405.677C351.083 405.205 354.196 404.604 357.319 403.874C360.442 403.144 363.543 402.403 366.645 401.62C369.746 400.837 372.816 399.946 375.874 399.001C378.364 398.25 380.854 397.456 383.301 396.555L384.868 395.986L384.986 395.932H384.857L383.086 396.222C380.553 396.64 378.042 397.166 375.574 397.714C372.451 398.4 369.349 399.173 366.258 399.978C363.168 400.783 360.077 401.642 357.018 402.586C353.96 403.53 350.869 404.518 347.864 405.677Z" fill="white"/>
<path d="M84.2793 159.935L92.4897 209.909L13.69 222.855L5.47962 172.881L84.2793 159.935Z" fill="#EBEBEB"/>
<path d="M5.49467 172.859C9.17572 175.381 12.8997 177.763 16.6022 180.232C20.3047 182.7 24.0394 185.029 27.7634 187.4C31.6555 189.869 35.5547 192.309 39.4612 194.72C39.575 194.804 39.6932 194.883 39.8153 194.956C43.2602 197.102 46.7266 199.248 50.1823 201.395L50.6975 201.695L51.0731 201.255C53.6702 198.136 56.2602 195.009 58.843 191.876C58.9408 191.772 59.0305 191.661 59.1113 191.543C62.0518 188.001 64.9602 184.449 67.8578 180.811C70.6266 177.398 73.3847 173.932 76.1428 170.476C78.9009 167.021 81.6161 163.5 84.2991 159.938C81.3478 163.157 78.4716 166.377 75.5633 169.596C72.6549 172.816 69.7788 176.143 66.9241 179.459C63.726 183.115 60.5458 186.821 57.3834 190.577L50.2682 198.98C47.1345 197.081 43.99 195.16 40.8563 193.292C36.6601 190.77 32.4747 188.259 28.257 185.78C24.4901 183.58 20.7447 181.38 16.9349 179.223C13.1251 177.066 9.31523 174.909 5.49467 172.859Z" fill="white"/>
<path d="M57.4477 191.726L57.5658 191.801L58.9716 192.649C61.2253 193.99 63.5113 195.256 65.8293 196.469C68.6518 197.972 71.5173 199.388 74.4149 200.762C77.3125 202.136 80.1886 203.466 83.1292 204.733C86.0697 205.999 89.0317 207.233 92.0688 208.296C89.3322 206.6 86.5312 205.076 83.7087 203.563C80.8862 202.05 77.9993 200.644 75.1232 199.27C72.247 197.896 69.3279 196.544 66.3874 195.278C64.0478 194.269 61.6653 193.282 59.2614 192.391L57.5872 191.779L57.4477 191.726Z" fill="white"/>
<path d="M13.6293 221.206C16.1621 219.221 18.5875 217.107 20.9592 214.971C23.331 212.835 25.6491 210.625 27.9564 208.414C30.2638 206.203 32.5068 203.906 34.7068 201.578C36.499 199.689 38.2591 197.768 39.944 195.782L41.0172 194.516L41.103 194.409L40.985 194.495C40.5128 194.87 40.0513 195.235 39.6006 195.621C37.6044 197.231 35.6834 198.927 33.7731 200.633C31.3906 202.78 29.0726 204.98 26.7759 207.201C24.4793 209.423 22.2363 211.709 20.0363 214.037C17.8362 216.366 15.6791 218.716 13.6293 221.206Z" fill="white"/>
<path d="M322.429 462.202L287.798 457.92L300.204 357.641L344.022 363.06L322.429 462.202Z" fill="#4831D4"/>
<path d="M344.011 363.06L335.791 400.879L322.419 462.212L287.787 457.93L300.193 357.641L344.011 363.06Z" fill="#4831D4"/>
<path opacity="0.2" d="M344.011 363.06L335.791 400.879L322.419 462.212L287.787 457.93L300.193 357.641L344.011 363.06Z" fill="white"/>
<path opacity="0.1" d="M344.011 363.06L338.592 388.001L296.415 388.184L300.193 357.641L344.011 363.06Z" fill="black"/>
<path d="M346.463 378.91L291.941 372.167L297.064 330.747L351.585 337.489L346.463 378.91Z" fill="#4831D4"/>
<path opacity="0.2" d="M346.463 378.91L291.941 372.167L297.064 330.747L351.585 337.489L346.463 378.91Z" fill="black"/>
<path d="M389.965 326.883L347.091 325.874L355.376 258.854L397.209 268.319L389.965 326.883Z" fill="#4831D4"/>
<g opacity="0.2">
<path d="M389.965 326.883L347.091 325.874L355.376 258.854L397.209 268.319L389.965 326.883Z" fill="white"/>
</g>
<path d="M335.232 242.885L323.009 341.79L250.89 341.522L78.1388 381.863L107.523 144.344L265.228 225.585L335.232 242.885Z" fill="#4831D4"/>
<path opacity="0.2" d="M335.232 242.885L323.009 341.79L250.89 341.522L78.1388 381.863L107.523 144.344L265.228 225.585L335.232 242.885Z" fill="white"/>
<path opacity="0.1" d="M78.1389 381.884L250.88 341.543L322.998 341.822L326.143 316.419C304.818 318.469 248.873 323.814 247.725 324.2L78.1389 381.884Z" fill="black"/>
<path d="M74.2179 381.986C53.03 379.366 42.4623 323.805 50.6143 257.889C58.7662 191.972 82.5508 140.661 103.739 143.281C124.927 145.901 135.494 201.461 127.342 267.378C119.19 333.294 95.4058 384.606 74.2179 381.986Z" fill="#4831D4"/>
<path opacity="0.2" d="M118.662 264.273C111.418 322.794 91.4892 368.491 74.1465 366.344C56.8037 364.198 48.6045 315.024 55.8378 256.503C63.0711 197.982 83.0217 152.243 100.354 154.378C117.686 156.514 125.896 205.709 118.662 264.273Z" fill="black"/>
<path d="M113.543 263.597C112.578 271.388 111.397 278.943 109.991 286.187C106.166 288.585 101.738 289.849 97.2236 289.831C92.7087 289.814 88.2914 288.517 84.4844 286.089C80.6774 283.662 77.6369 280.205 75.7158 276.119C73.7948 272.033 73.072 267.487 73.6314 263.006L75.0159 251.802C75.5555 247.333 77.3489 243.107 80.1887 239.614C83.0284 236.12 86.7987 233.502 91.0639 232.061C95.329 230.619 99.9149 230.414 104.292 231.469C108.668 232.525 112.657 234.796 115.797 238.023C115.379 246.254 114.627 254.829 113.543 263.597Z" fill="#4831D4"/>
<path opacity="0.2" d="M113.543 263.597C112.578 271.388 111.397 278.943 109.991 286.187C106.166 288.585 101.738 289.849 97.2236 289.831C92.7087 289.814 88.2914 288.517 84.4844 286.089C80.6774 283.662 77.6369 280.205 75.7158 276.119C73.7948 272.033 73.072 267.487 73.6314 263.006L75.0159 251.802C75.5555 247.333 77.3489 243.107 80.1887 239.614C83.0284 236.12 86.7987 233.502 91.0639 232.061C95.329 230.619 99.9149 230.414 104.292 231.469C108.668 232.525 112.657 234.796 115.797 238.023C115.379 246.254 114.627 254.829 113.543 263.597Z" fill="white"/>
<path d="M360.656 352.017L277.742 350.064L293.775 220.455L374.661 238.774L360.656 352.017Z" fill="#4831D4"/>
<g opacity="0.1">
<path d="M360.656 352.017L277.742 350.064L293.775 220.455L374.661 238.774L360.656 352.017Z" fill="black"/>
</g>
<path opacity="0.2" d="M115.615 152.661C121.217 160.764 124.061 170.412 126.411 179.909C128.559 189.511 129.94 199.269 130.543 209.09C130.983 213.994 130.983 218.909 131.155 223.824C131.047 228.74 131.09 233.655 130.876 238.559C130.661 243.464 130.446 248.379 129.995 253.273C129.545 258.167 129.169 263.06 128.611 267.943C126.239 287.422 122.773 306.857 116.892 325.649C113.998 335.059 110.277 344.196 105.774 352.951C101.03 361.536 95.5568 370.025 87.6366 375.928C95.149 369.553 100.257 361.01 104.539 352.318C108.755 343.53 112.195 334.391 114.821 325.005C120.118 306.219 123.795 287.014 125.81 267.6C128.107 248.282 129.352 228.675 128.396 209.208C128.045 199.477 126.932 189.789 125.07 180.231C123.191 170.712 120.669 161.118 115.615 152.661Z" fill="black"/>
<path d="M214.874 149.935C217.182 162.545 233.687 165.261 236.209 162.556C246.447 151.62 257.319 130.36 269.092 106.621C278.3 88.0767 272.376 87.4864 264.37 92.4339C245.75 103.949 213.629 143.164 214.874 149.935Z" fill="#4831D4"/>
<path opacity="0.1" d="M214.874 149.946C217.181 162.545 233.676 165.26 236.209 162.556C246.447 151.62 257.308 130.36 269.092 106.621C273.545 97.6385 274.64 92.015 272.891 90.3516L215.11 147.435C214.849 148.244 214.768 149.102 214.874 149.946Z" fill="black"/>
<path d="M242.927 150.568C245.202 142.562 238.517 130.51 223.009 101.405C220.863 97.3703 188.388 108.145 190.459 112.567C193.067 118.126 206.664 138.999 209.326 141.843C222.322 155.752 241.371 155.988 242.927 150.568Z" fill="#EB9481"/>
<path d="M202.532 123.481C202.532 123.481 191.006 119.06 183.612 115.819C179.491 114.005 172.687 110.27 170.262 107.555C166.634 103.488 154.067 84.1811 158.693 81.0367C162.867 78.182 171.571 96.1472 171.571 96.1472C171.571 96.1472 161.193 78.7937 166.86 76.2932C172.526 73.7926 179.609 95.3852 179.609 95.3852C179.609 95.3852 169.349 77.3234 175.606 75.66C180.339 74.4044 187.894 93.6359 187.894 93.6359C187.894 93.6359 179.191 78.0532 183.988 76.5507C189.289 74.8873 197.37 92.1764 197.37 92.1764C210.249 90.4164 220.144 96.4692 223.717 102.769C224.404 103.971 202.532 123.481 202.532 123.481Z" fill="#EB9481"/>
<path d="M174.243 101.545C165.658 89.343 165.143 80.7252 165.196 80.9506C166.602 86.3166 170.455 93.8289 171.571 95.9753C172.687 98.1217 173.213 99.388 174.318 101.491C174.404 101.556 174.329 101.588 174.243 101.545Z" fill="#263238"/>
<path d="M182.421 98.5081C178.716 93.7285 175.888 88.3288 174.071 82.5605C174.071 82.3351 174.125 82.3673 174.232 82.5605C175.574 85.2649 181.026 95.8144 182.485 98.4545C182.507 98.5189 182.453 98.5403 182.421 98.5081Z" fill="#263238"/>
<path d="M189.601 96.3615C186.802 92.5999 184.731 88.3487 183.494 83.8266C183.43 83.612 183.601 83.6656 183.698 83.8266C185.64 88.0228 187.143 91.339 189.729 96.222C189.772 96.3508 189.654 96.4474 189.601 96.3615Z" fill="#263238"/>
<path d="M197.51 128.193L232.013 111.644C232.013 111.644 248.293 144.741 244.516 152.05C242.82 155.269 236.896 163.801 230.242 164.026C214.949 164.552 197.51 128.193 197.51 128.193Z" fill="#4831D4"/>
<path d="M234.009 120.251C230.189 122.258 226.282 124.06 222.365 125.853C218.448 127.645 214.52 129.448 210.56 131.144C208.317 132.099 206.085 133.075 203.81 133.955C203.745 133.955 203.702 133.88 203.756 133.848C207.566 131.841 211.483 130.017 215.379 128.203C219.274 126.389 223.224 124.608 227.184 122.837C229.416 121.86 231.659 120.916 233.934 120.036C234.02 120.015 234.117 120.186 234.009 120.251Z" fill="#263238"/>
<path d="M231.584 111.59C231.916 111.354 232.399 111.064 232.442 111.15C233.515 113.297 234.449 115.69 235.34 117.922C236.231 120.154 237.046 122.344 237.84 124.576C238.27 125.778 238.678 126.991 239.042 128.203C240.064 129.578 240.817 131.132 241.264 132.786C241.264 132.872 241.146 132.915 241.124 132.786C240.667 131.327 240.013 129.937 239.182 128.654C240.114 131.624 240.592 134.717 240.599 137.83C240.599 133.183 238.57 128.686 237.025 124.393C236.252 122.247 235.426 120.101 234.599 117.954C233.773 115.808 232.85 113.726 232.045 111.59L231.594 111.805C231.487 111.88 231.519 111.644 231.584 111.59Z" fill="#263238"/>
<path d="M269.628 91.4248C263.189 95.342 251.727 112.545 246.222 132.968C244.833 138.686 243.734 144.471 242.927 150.3C239.708 171.635 235.415 195.557 234.975 203.52C234.428 214.133 252.929 232.56 262.03 230.263C271.131 227.967 286.112 231.905 270.165 171.41C265.979 155.516 261.311 120.669 266.602 101.545C267.438 98.1225 268.449 94.7447 269.628 91.4248Z" fill="#4831D4"/>
<path d="M174.865 354.078C177.838 353.445 248.98 311.558 250.686 308.242C251.341 306.986 245.836 296.276 238.881 283.558C237.368 280.8 235.79 277.967 234.17 275.091C223.674 256.439 212.094 236.885 212.094 236.885L164.423 264.788L187.808 302.232L192.884 310.42C192.884 310.42 172.816 338.645 171.345 342.476C169.875 346.308 171.882 354.711 174.865 354.078Z" fill="#EB9481"/>
<path d="M174.866 354.078C177.838 353.445 248.98 311.558 250.687 308.242C251.255 307.169 247.048 298.68 241.242 287.937C238.474 292.165 197.167 327.903 183.473 331.315C177.881 332.711 186.553 319.424 186.918 318.856C180.886 327.495 172.311 339.955 171.367 342.412C169.875 346.265 171.882 354.711 174.866 354.078Z" fill="#263238"/>
<path d="M186.113 319.961C186.113 319.961 192.326 314.466 204.26 319.285Z" fill="#263238"/>
<path d="M132.893 205.709C137.368 227.924 183.773 302.093 183.773 302.093L234.653 271.324L200.461 218.051C200.461 218.051 270.219 226.422 296.748 215.25C325.123 203.327 320.991 169.339 320.991 169.339L251.931 161.129C251.931 161.129 250.096 167.622 242.337 167.031C215.593 164.949 179.115 165.958 165.067 167.482C146.952 169.457 128.783 185.329 132.893 205.709Z" fill="#37474F"/>
<path d="M184.675 199.442C186.284 201.028 187.793 202.712 189.193 204.486C190.738 206.257 192.305 208.006 193.861 209.777V209.83L192.992 208.242C191.919 206.439 191.114 204.572 189.933 202.876C189.869 202.769 190.019 202.651 190.094 202.758C191.307 204.443 192.681 205.978 193.743 207.823C194.237 208.671 194.72 209.53 195.16 210.399C195.406 210.871 195.664 211.354 195.889 211.837C195.986 212.063 196.115 212.299 196.19 212.535C196.887 213.361 197.574 214.187 198.25 215.035C199.731 216.903 201.073 218.899 202.543 220.755C202.629 220.852 202.468 220.959 202.382 220.863C200.869 219.124 199.163 217.525 197.66 215.808C196.158 214.091 194.612 212.245 193.131 210.442C191.65 208.639 190.287 206.858 188.839 205.076C187.273 203.333 185.818 201.495 184.481 199.571C184.535 199.474 184.61 199.388 184.675 199.442Z" fill="#263238"/>
<path d="M180.5 290.147C181.83 289.139 183.247 288.216 184.632 287.282C186.016 286.348 187.368 285.425 188.753 284.513C191.564 282.646 194.419 280.821 197.274 278.997C202.994 275.327 208.757 271.732 214.531 268.136C217.75 266.119 221.034 264.166 224.286 262.169C224.34 262.169 224.425 262.234 224.361 262.266C218.838 266.065 213.279 269.818 207.684 273.524C202.089 277.23 196.365 280.886 190.513 284.492C188.903 285.479 187.282 286.452 185.651 287.411C183.998 288.377 182.346 289.407 180.639 290.276C180.532 290.319 180.435 290.201 180.5 290.147Z" fill="#263238"/>
<path d="M311.493 171.474C312.184 180.516 309.393 189.481 303.691 196.533C300.818 199.961 297.309 202.8 293.357 204.893C289.371 206.923 285.09 208.31 280.671 209.004C271.827 210.502 262.877 211.295 253.906 211.375C244.927 211.533 235.955 211.264 226.99 210.57C218.036 209.974 209.128 208.809 200.322 207.083C198.175 206.621 195.943 206.117 193.797 205.516C192.723 205.205 191.65 204.883 190.577 204.528C189.513 204.09 188.405 203.766 187.272 203.563C186.657 203.463 186.028 203.493 185.426 203.648C185.086 203.744 184.777 203.925 184.529 204.175C184.281 204.425 184.102 204.736 184.009 205.076C183.926 205.387 183.89 205.709 183.902 206.031C183.92 206.357 183.996 206.677 184.127 206.975C184.342 207.533 184.589 208.048 184.846 208.553C185.919 210.56 187.046 212.502 188.195 214.434C197.553 229.813 207.576 244.752 217.621 259.669C212.721 252.128 207.863 244.562 203.047 236.971C198.229 229.383 193.389 221.785 188.838 214.058C187.712 212.116 186.585 210.173 185.619 208.188C185.372 207.684 185.125 207.19 184.932 206.686C184.839 206.471 184.784 206.243 184.771 206.009C184.756 205.771 184.782 205.531 184.846 205.301C185.05 204.4 186.177 204.228 187.207 204.389C188.285 204.594 189.339 204.91 190.352 205.333C191.425 205.698 192.498 206.031 193.571 206.342C195.718 206.954 197.95 207.415 200.15 207.941C209.008 209.709 217.969 210.909 226.98 211.536C235.959 212.187 244.959 212.424 253.981 212.245C263.001 212.157 271.997 211.313 280.875 209.723C285.275 208.8 289.751 207.705 293.754 205.43C297.75 203.274 301.287 200.358 304.164 196.844C306.955 193.292 309.006 189.216 310.195 184.857C311.451 180.514 311.891 175.977 311.493 171.474Z" fill="#263238"/>
<path d="M240.781 359.057C243.561 357.823 304.421 302.038 305.398 298.443C305.773 297.08 298.175 287.711 288.656 276.722C286.606 274.339 284.471 271.893 282.281 269.424C268.137 253.326 252.736 236.649 252.736 236.649L211.955 273.846L242.605 305.601L249.366 312.566C249.366 312.566 235.619 344.344 234.975 348.4C234.331 352.457 238.023 360.291 240.781 359.057Z" fill="#EB9481"/>
<path d="M240.781 359.057C243.55 357.823 304.41 302.038 305.387 298.443C305.72 297.241 299.849 289.858 291.929 280.542C290.105 285.254 257.147 328.836 244.473 334.996C239.278 337.529 244.998 322.73 245.245 322.118C241.146 331.777 235.35 345.803 234.943 348.4C234.342 352.457 238.023 360.302 240.781 359.057Z" fill="#263238"/>
<path d="M244.709 323.299C244.709 323.299 249.635 316.634 262.32 318.867Z" fill="#263238"/>
<path d="M163.897 210.893C168.373 233.108 227.999 294.065 234.889 301.041L236.488 302.65L279.802 264.434L279.223 263.79L246.372 227.624C246.372 227.624 296.962 244.795 318.63 213.479C327.216 201.041 321.023 169.339 321.023 169.339L265.539 162.975C265.539 162.975 264.595 172.472 256.836 171.871C230.081 169.789 209.057 167.815 195.009 169.339C176.862 171.313 159.787 190.513 163.897 210.893Z" fill="#37474F"/>
<path d="M255.291 171.753C238.119 170.111 220.841 168.684 203.52 168.705C201.373 168.705 199.227 168.78 197.016 168.92C194.834 169.022 192.663 169.294 190.523 169.736C189.456 170.011 188.412 170.369 187.4 170.809C186.392 171.227 185.394 171.667 184.417 172.161C182.462 173.131 180.582 174.247 178.793 175.499C175.18 177.977 172 181.033 169.382 184.546C166.76 188.073 164.863 192.086 163.801 196.351C163.282 198.484 162.969 200.661 162.867 202.854C162.867 203.402 162.867 203.927 162.867 204.496C162.867 205.065 162.867 205.569 162.867 206.149C162.962 207.232 163.13 208.308 163.372 209.369C164.465 213.594 166.095 217.663 168.223 221.474C172.423 229.06 177.229 236.296 182.593 243.11C187.873 249.967 193.443 256.589 199.163 263.071C204.883 269.553 210.828 275.842 216.827 282.066C210.946 275.735 205.14 269.328 199.517 262.749C193.893 256.17 188.377 249.549 183.183 242.648C177.911 235.822 173.168 228.604 168.995 221.056C166.917 217.307 165.33 213.307 164.273 209.154C164.042 208.122 163.884 207.075 163.801 206.02C163.741 204.948 163.741 203.873 163.801 202.801C163.904 200.672 164.213 198.559 164.724 196.49C165.735 192.342 167.559 188.435 170.09 184.996C172.633 181.551 175.73 178.552 179.255 176.121C181.006 174.888 182.846 173.786 184.76 172.826C185.716 172.343 186.681 171.903 187.679 171.496C188.647 171.058 189.648 170.699 190.674 170.422C192.768 169.986 194.891 169.706 197.027 169.585C199.173 169.435 201.32 169.36 203.466 169.317C212.052 169.178 220.734 169.521 229.362 169.95C237.991 170.379 246.684 171.056 255.291 171.753Z" fill="#263238"/>
<path d="M228.482 206.224C230.09 207.804 231.596 209.485 232.99 211.257C234.546 213.028 236.113 214.778 237.658 216.548V216.602C237.368 216.076 237.089 215.529 236.789 215.014C235.769 213.221 234.921 211.354 233.741 209.648C233.725 209.626 233.719 209.6 233.723 209.573C233.727 209.547 233.741 209.524 233.762 209.508C233.784 209.493 233.81 209.486 233.837 209.49C233.863 209.494 233.886 209.508 233.902 209.53C235.104 211.225 236.488 212.814 237.551 214.606C238.044 215.443 238.517 216.301 238.967 217.171C239.214 217.654 239.461 218.126 239.686 218.609C239.803 218.839 239.907 219.076 239.998 219.317C240.695 220.133 241.382 220.97 242.047 221.807C243.539 223.674 244.881 225.67 246.34 227.527C246.415 227.624 246.254 227.731 246.179 227.634C244.666 225.907 242.96 224.307 241.457 222.58C239.955 220.852 238.399 219.017 236.928 217.214C235.458 215.411 234.074 213.64 232.635 211.848C231.076 210.099 229.625 208.257 228.289 206.332C228.332 206.256 228.418 206.16 228.482 206.224Z" fill="#263238"/>
<path d="M230.918 292.584C232.056 291.36 233.311 290.212 234.513 289.053C235.715 287.894 236.896 286.767 238.109 285.64C240.566 283.322 243.077 281.047 245.621 278.761C250.633 274.189 255.72 269.671 260.807 265.153C263.651 262.62 266.548 260.141 269.392 257.641C269.446 257.641 269.542 257.641 269.489 257.726C264.681 262.398 259.83 267.031 254.936 271.624C250.042 276.218 245.006 280.789 239.826 285.34C238.409 286.585 236.971 287.808 235.533 289.031C234.095 290.255 232.614 291.553 231.079 292.702C230.972 292.745 230.865 292.648 230.918 292.584Z" fill="#263238"/>
<path d="M313.468 172.397C314.468 177.248 314.829 182.209 314.541 187.154C314.297 192.088 313.133 196.932 311.107 201.438C309.031 205.906 305.735 209.697 301.599 212.374C297.407 214.934 292.68 216.491 287.787 216.924C282.866 217.454 277.906 217.497 272.977 217.053C268.054 216.646 263.157 215.976 258.306 215.046C248.59 213.228 239.012 210.736 229.641 207.587L229.287 207.469L229.126 207.781C228.537 208.97 228.173 210.258 228.053 211.58C227.927 212.879 228.007 214.19 228.289 215.465C228.573 216.735 229.024 217.962 229.631 219.113C230.273 220.213 230.99 221.267 231.777 222.269C234.932 226.229 238.323 229.974 241.715 233.709C245.106 237.444 248.583 241.114 252.071 244.741C255.559 248.369 259.079 252.007 262.62 255.602C259.158 251.932 255.72 248.24 252.307 244.527C248.905 240.803 245.503 237.079 242.144 233.323C238.785 229.566 235.458 225.81 232.378 221.807C231.61 220.834 230.911 219.808 230.285 218.738C229.728 217.646 229.31 216.489 229.04 215.293C228.502 212.914 228.766 210.423 229.792 208.21L229.276 208.392C238.723 211.6 248.384 214.135 258.188 215.98C263.079 216.902 268.015 217.561 272.977 217.954C277.947 218.378 282.947 218.314 287.905 217.761C292.899 217.295 297.713 215.655 301.953 212.975C306.177 210.194 309.526 206.271 311.612 201.663C313.611 197.087 314.704 192.167 314.831 187.175C315.029 182.211 314.571 177.242 313.468 172.397Z" fill="#263238"/>
<path d="M289.686 171.7C290.191 174.307 290.856 176.894 291.586 179.448C292.11 181.773 293.079 183.974 294.44 185.93C295.902 187.646 297.738 189.005 299.806 189.901C300.992 190.461 302.211 190.948 303.455 191.36C304.736 191.72 305.988 192.175 307.201 192.723C307.249 192.75 307.288 192.791 307.311 192.841C307.335 192.89 307.342 192.947 307.331 193.001C307.32 193.055 307.292 193.104 307.251 193.141C307.211 193.178 307.159 193.201 307.104 193.206C305.698 193.185 304.299 192.991 302.94 192.627C301.615 192.33 300.316 191.929 299.055 191.425C296.761 190.494 294.743 188.99 293.196 187.057C291.73 184.945 290.755 182.532 290.341 179.995C289.734 177.273 289.392 174.499 289.321 171.71C289.32 171.662 289.338 171.615 289.371 171.58C289.404 171.545 289.45 171.524 289.498 171.523C289.547 171.521 289.594 171.539 289.629 171.572C289.664 171.605 289.685 171.651 289.686 171.7Z" fill="#263238"/>
<path d="M322.032 171.335L248.937 168.759L254.303 141.393C254.303 141.393 248.25 133.483 249.742 125.187C251.384 116.108 268.641 93.5498 270.133 92.2942C275.874 87.2609 281.047 85.3935 285.855 88.9351C302.565 101.298 322.032 171.335 322.032 171.335Z" fill="#4831D4"/>
<path d="M264.101 138.635C267.364 139.045 270.592 139.694 273.76 140.577C275.316 141.039 276.851 141.575 278.385 142.144C279.147 142.423 279.92 142.68 280.693 142.927C281.493 143.214 282.326 143.402 283.172 143.485C283.247 143.485 283.247 143.603 283.172 143.603C282.369 143.62 281.565 143.577 280.768 143.475C279.995 143.357 279.231 143.184 278.482 142.96C276.894 142.509 275.316 141.983 273.728 141.511C270.508 140.566 267.289 139.622 264.069 138.903C263.897 138.871 263.951 138.613 264.101 138.635Z" fill="#263238"/>
<path d="M255.924 141.253C258.627 141.062 261.34 141.026 264.048 141.146C265.4 141.21 266.741 141.35 268.083 141.532C268.727 141.618 269.371 141.715 270.004 141.822C270.637 141.929 271.399 142.144 272.15 142.251C272.225 142.251 272.225 142.38 272.15 142.369C271.485 142.283 270.798 142.369 270.122 142.283L268.104 142.155L264.058 141.919C261.354 141.725 258.692 141.564 255.956 141.479C255.806 141.468 255.806 141.264 255.924 141.253Z" fill="#263238"/>
<path d="M295.278 98.7548C313.361 121.356 333.998 166.881 328.117 174.951C321.56 183.934 296.404 152.275 296.716 150.633C296.952 149.388 290.062 122.397 284.728 102.726C279.394 83.0541 290.802 93.1742 295.278 98.7548Z" fill="#EB9481"/>
<path d="M296.522 150.633C295.986 147.767 286.467 112.116 283.869 100.89C281.541 90.8237 283.869 87.0676 291.382 94.0218C305.333 106.814 331.337 144.129 334.792 162.266C338.109 179.748 323.535 179.437 312.685 170.326C303.852 162.846 296.522 150.633 296.522 150.633Z" fill="#4831D4"/>
<path d="M297.735 155.237C294.816 141.758 291.378 128.4 287.422 115.164C290.327 128.65 293.764 142.008 297.735 155.237Z" fill="#263238"/>
<path d="M289.278 122.955C288.913 121.139 288.064 119.456 286.821 118.083C287.065 119.938 287.932 121.656 289.278 122.955Z" fill="#263238"/>
<path d="M183.558 166.742H258.231V170.326H183.558V166.742Z" fill="#455A64"/>
<path d="M223.266 166.742H258.231V170.326H223.266V166.742Z" fill="#A6A6A6"/>
<path d="M224.758 170.326H146.845L135.834 117.407H213.747L224.758 170.326Z" fill="#A6A6A6"/>
<path d="M221.227 170.326H143.314L132.303 117.407H210.216L221.227 170.326Z" fill="#C7C7C7"/>
<path d="M181.959 145.041C182.048 145.698 181.993 146.366 181.799 146.999C181.604 147.632 181.275 148.216 180.833 148.71C180.392 149.203 179.848 149.596 179.24 149.859C178.632 150.122 177.975 150.251 177.312 150.236C175.89 150.207 174.526 149.666 173.471 148.711C172.416 147.757 171.741 146.454 171.571 145.041C171.484 144.385 171.54 143.718 171.735 143.086C171.93 142.453 172.26 141.87 172.701 141.377C173.143 140.884 173.685 140.492 174.292 140.227C174.899 139.963 175.556 139.834 176.218 139.847C177.639 139.878 179.002 140.42 180.057 141.374C181.111 142.328 181.787 143.63 181.959 145.041Z" fill="#EBEBEB"/>
<path d="M328.085 173.31C321.367 177.828 309.132 174.458 277.538 168.856C273.17 168.083 270.337 135.759 275.048 136.349C280.983 137.089 303.852 141.243 305.484 141.715C319.263 146.104 332.646 170.251 328.085 173.31Z" fill="#EB9481"/>
<path d="M279.652 138.517C279.652 138.517 268.652 132.4 261.88 131.004C254.803 129.695 247.513 130.13 240.642 132.271C233.215 134.546 216.827 145.149 219.06 150.44C221.099 155.194 237.304 143.475 237.304 143.475C237.304 143.475 218.813 152.704 222.279 157.974C225.746 163.243 243.807 148.583 243.807 148.583C243.807 148.583 225.016 158.489 229.491 163.361C232.861 167.042 249.946 154.668 249.946 154.668C249.946 154.668 233.848 163.254 237.164 167.225C240.813 171.582 257.297 161.14 257.297 161.14C267.396 169.725 275.713 169.725 281.627 168.963C283.075 168.759 279.652 138.517 279.652 138.517Z" fill="#EB9481"/>
<path d="M243.485 139.836C241.275 140.834 239.032 141.843 236.917 143.056C234.803 144.269 232.721 145.524 230.736 146.919C228.094 148.686 225.664 150.749 223.492 153.069C227.645 149.227 235.147 144.827 237.261 143.625C239.375 142.423 241.425 141.124 243.528 139.933L243.485 139.836Z" fill="#263238"/>
<path d="M247.95 147.392C245.181 148.798 242.38 150.085 239.675 151.609C236.971 153.133 234.556 154.829 231.981 156.514C231.777 156.643 231.916 156.707 232.12 156.589C234.771 154.99 237.336 153.713 240.008 152.146C242.68 150.579 245.278 148.926 247.993 147.445C248.036 147.424 247.993 147.37 247.95 147.392Z" fill="#263238"/>
<path d="M252.951 153.187C248.65 155.239 244.572 157.727 240.781 160.614C240.588 160.753 240.781 160.818 240.974 160.689C244.977 158.135 248.089 156.117 253.005 153.338C253.09 153.295 253.037 153.144 252.951 153.187Z" fill="#263238"/>
<path d="M281.466 133.956L294.441 179.169C294.441 179.169 326.776 179.738 332.002 174.232C335.737 170.294 321.163 147.027 306.052 141.725L281.466 133.956Z" fill="#4831D4"/>
<path d="M321.667 154.303C320.251 151.481 314.767 144.891 306.074 141.693C305.999 141.693 305.934 141.779 306.009 141.822C312.255 144.827 319.961 151.771 321.56 154.368C321.603 154.443 321.71 154.368 321.667 154.303Z" fill="#263238"/>
<path d="M300.88 172.805C299.967 168.351 298.819 163.951 297.66 159.551C296.501 155.151 295.353 150.74 294.086 146.372C293.367 143.904 292.67 141.425 291.865 138.978C291.865 138.913 291.736 138.978 291.747 138.978C292.648 143.432 293.786 147.842 294.966 152.242C296.147 156.643 297.263 161.053 298.486 165.443C299.173 167.922 299.903 170.39 300.708 172.826C300.751 172.977 300.955 172.934 300.88 172.805Z" fill="#263238"/>
<path d="M281.562 133.58C283.3 133.906 285.014 134.351 286.692 134.911C288.388 135.419 290.076 135.952 291.757 136.51C295.106 137.583 302.318 139.558 308.016 142.52C308.081 142.52 307.598 142.691 307.544 142.659C304.904 141.114 283.43 134.921 281.788 134.213C281.798 134.349 281.798 134.485 281.788 134.621C281.788 134.718 281.648 134.782 281.594 134.685C281.541 134.589 281.401 134.202 281.294 133.956C281.271 133.913 281.261 133.865 281.264 133.818C281.267 133.77 281.284 133.724 281.311 133.685C281.339 133.645 281.378 133.615 281.422 133.597C281.466 133.578 281.515 133.572 281.562 133.58Z" fill="#263238"/>
<path d="M292.122 171.506C292.788 174.168 293.507 176.808 294.269 179.437C296.866 179.437 299.463 179.437 302.049 179.351C309.562 179.105 317.235 178.772 324.651 177.205C316.13 178.214 303.187 178.504 294.473 178.911L294.741 179.105C293.904 176.558 293.035 174.028 292.133 171.517L292.122 171.506Z" fill="#263238"/>
<path d="M284.267 93.0564C283.87 94.4086 276.883 103.005 270.626 102.393C268.598 102.2 269.188 91.0174 269.188 91.0174L269.049 90.1803L267.042 78.4825L281.047 70.4443L283.065 69.3711C283.065 69.3711 283.397 72.5907 283.784 76.6473C283.784 76.8298 283.784 77.0122 283.837 77.2161C283.891 77.42 283.837 77.6561 283.913 77.8708C283.977 78.4717 284.041 79.0942 284.084 79.7059C284.127 80.3176 284.17 80.6289 284.192 81.1118C284.213 81.5947 284.256 82.0884 284.299 82.5821C284.521 86.0704 284.51 89.5696 284.267 93.0564Z" fill="#EB9481"/>
<path d="M283.784 76.6581C282.456 79.8463 280.451 82.7074 277.906 85.0425C275.361 87.3776 272.339 89.1308 269.049 90.1803L267.042 78.4825L281.047 70.4443L283.065 69.3711C283.065 69.3711 283.397 72.6229 283.784 76.6581Z" fill="#263238"/>
<path d="M286.392 69.1563C291.135 68.9846 302.243 74.372 305.054 81.1653C307.866 87.9586 305.73 97.7354 303.541 98.3364C301.352 98.9374 292.809 96.5978 287.443 92.2192C282.077 87.8406 284.063 69.2422 286.392 69.1563Z" fill="#263238"/>
<path d="M286.381 69.1778C286.231 69.1134 286.263 68.8666 286.381 68.888C290.384 69.5212 294.408 71.6461 298.003 73.4384C300.912 74.8764 303.863 76.497 305.956 79.0404C306.968 80.2429 307.708 81.6501 308.124 83.1654C308.541 84.6807 308.625 86.2683 308.37 87.8191C307.855 91.3607 306.568 95.5139 304.282 98.3149C304.207 98.3901 304.035 98.3149 304.099 98.2183C307.147 91.9187 310.238 84.1059 304.464 78.375C299.624 73.5028 292.541 71.7427 286.381 69.1778Z" fill="#263238"/>
<path d="M303.198 96.469C307.083 97.7139 316.076 107.201 316.387 115.078C316.699 122.955 308.553 133.033 306.45 133.483C304.346 133.934 296.877 125.07 294.988 119.21C293.722 115.303 295.997 111.429 297.617 107.405C300.021 101.588 302.586 96.2758 303.198 96.469Z" fill="#263238"/>
<path d="M292.777 117.826C293.002 109.895 298.765 103.059 302.672 96.5657C302.672 96.5013 302.833 96.5657 302.801 96.6301C300.118 103.069 294.999 108.317 293.603 115.293C292.788 119.425 293.485 123.76 296.437 126.937C298.991 129.684 302.532 131.369 305.741 133.215C305.956 133.344 305.741 133.644 305.537 133.537C299.098 130.039 292.541 126.014 292.777 117.826Z" fill="#263238"/>
<path d="M303.927 97.3381C303.745 97.2094 303.927 96.9196 304.121 97.0484C309.293 100.762 315.389 105.924 317.374 112.213C319.521 119.027 315.035 124.93 311.086 130.006C311.086 130.07 310.935 130.006 310.989 129.931C314.906 124.769 319.242 118.265 316.613 111.526C314.359 105.73 308.778 100.944 303.927 97.3381Z" fill="#263238"/>
<path d="M306.031 133.193C303.208 134.331 298.84 138.559 297.445 143.872C295.02 152.972 291.715 150.826 281.347 152.318C272.612 153.573 269.886 162.953 273.985 168.104C273.985 168.104 271.914 161.966 277.935 159.626C285.136 156.836 300.161 165.561 308.928 156.6C320.294 145.009 306.031 133.193 306.031 133.193Z" fill="#263238"/>
<path d="M301.953 137.122C302.071 137.003 301.878 136.789 301.749 136.907C300.478 137.958 299.409 139.23 298.594 140.663C297.52 142.53 297.295 144.645 296.383 146.566C294.054 151.47 287.958 150.708 283.505 150.59C277.516 150.451 272.386 153.627 271.42 159.852C271.426 159.866 271.436 159.878 271.448 159.886C271.461 159.894 271.475 159.899 271.49 159.899C271.505 159.899 271.52 159.894 271.532 159.886C271.545 159.878 271.554 159.866 271.56 159.852C271.876 157.932 272.711 156.136 273.975 154.656C275.238 153.177 276.882 152.072 278.729 151.459C282.346 150.386 286.241 151.459 289.89 150.955C292.423 150.59 294.977 149.774 296.329 147.478C296.979 146.158 297.486 144.773 297.842 143.346C298.66 140.955 300.075 138.812 301.953 137.122Z" fill="#263238"/>
<path d="M307.491 134.47C307.491 134.417 307.351 134.47 307.394 134.546C310.453 138.205 313.704 141.886 314.209 146.844C314.745 152.21 311.547 157.168 307.126 159.937C302.178 163.039 297.403 160.871 292.348 159.368C288.699 158.295 284.943 157.49 281.165 158.413C281.047 158.413 281.09 158.628 281.165 158.617C287.186 157.812 292.402 160.077 298.1 161.569C302.747 162.781 306.621 161.493 310.013 158.113C317.525 150.665 314.305 141.038 307.491 134.47Z" fill="#263238"/>
<path d="M290.652 65.6256C292.208 64.2519 294.312 66.6987 292.745 68.0724C291.178 69.4461 289.074 66.9992 290.652 65.6256Z" fill="#4831D4"/>
<path d="M288.924 68.0831C290.48 66.7094 292.584 69.1563 291.071 70.53C289.557 71.9036 287.368 69.4568 288.924 68.0831Z" fill="#4831D4"/>
<path d="M286.789 70.2296C288.345 68.8559 290.448 71.3028 288.935 72.6764C288.611 72.9611 288.186 73.1051 287.756 73.077C287.325 73.0488 286.923 72.8507 286.638 72.5262C286.354 72.2017 286.21 71.7775 286.238 71.3468C286.266 70.9161 286.464 70.5142 286.789 70.2296Z" fill="#4831D4"/>
<path d="M284.449 72.0216C286.005 70.6479 288.109 73.0947 286.595 74.4684C285.082 75.8421 282.882 73.406 284.449 72.0216Z" fill="#4831D4"/>
<path d="M281.777 73.417C283.333 72.0433 285.436 74.4902 283.923 75.8746C282.41 77.259 280.21 74.8014 281.777 73.417Z" fill="#4831D4"/>
<path d="M279.008 74.3184C280.564 72.9447 282.668 75.3916 281.101 76.7653C279.534 78.139 277.441 75.6599 279.008 74.3184Z" fill="#4831D4"/>
<path d="M253.541 57.394C248.519 77.6129 260.045 82.9037 264.391 83.9769C268.34 84.9535 281.927 87.7975 289.01 68.2118C296.093 48.626 288.291 39.8902 279.351 37.1751C270.412 34.4599 258.564 37.1858 253.541 57.394Z" fill="#EB9481"/>
<path d="M286.391 69.9182C282.195 68.6411 284.814 58.9502 284.814 58.9502C284.814 58.9502 278.085 55.5482 276.55 49.8603C276.55 49.8603 277.302 54.6145 279.587 57.1472C279.974 57.5765 265.958 51.9101 267.782 40.4377C267.782 40.4377 262.481 50.751 255.237 51.073C254.893 51.073 258.81 43.0992 262.277 40.5128C263.775 39.3014 265.377 38.224 267.063 37.2932C272.364 35.3258 278.226 35.5185 283.387 37.8298C291.886 41.7148 294.977 52.7257 294.537 56.7502C293.668 64.6596 288.377 70.5299 286.391 69.9182Z" fill="#263238"/>
<path d="M279.062 57.2548C271.281 54.6147 266.484 47.757 268.169 39.5149C268.169 39.311 267.9 39.2252 267.815 39.4076C264.37 47.2634 271.453 55.8274 279.083 57.4158C279.276 57.4587 279.244 57.3192 279.062 57.2548Z" fill="#263238"/>
<path d="M286.499 69.4673C282.871 66.0331 283.44 61.5471 284.353 57.0934C284.353 56.9646 284.159 56.8895 284.116 57.029C282.807 61.3218 282.067 66.6877 286.198 69.7785C286.24 69.8184 286.295 69.8402 286.352 69.8392C286.41 69.8382 286.464 69.8144 286.504 69.7731C286.544 69.7319 286.566 69.6765 286.565 69.6191C286.564 69.5617 286.54 69.5071 286.499 69.4673Z" fill="#263238"/>
<path d="M268.222 38.7527C268.222 38.7527 268.222 38.6883 268.147 38.7527C265.872 42.9811 263.457 50.5578 257.351 49.9998C257.324 50.0077 257.301 50.024 257.285 50.0462C257.268 50.0685 257.259 50.0955 257.259 50.1232C257.259 50.1509 257.268 50.1779 257.285 50.2002C257.301 50.2224 257.324 50.2387 257.351 50.2466C263.135 51.2769 267.482 43.6036 268.222 38.7527Z" fill="#263238"/>
<path d="M259.54 55.0011C260.034 55.0011 260.485 55.0011 260.968 55.0011C261.473 55.0749 261.988 54.9846 262.438 54.7435C262.561 54.6374 262.646 54.4943 262.681 54.3357C262.716 54.177 262.698 54.0113 262.631 53.8635C262.451 53.5934 262.201 53.3763 261.909 53.2348C261.616 53.0933 261.291 53.0325 260.968 53.0586C260.301 53.0077 259.639 53.2066 259.111 53.6166C258.996 53.7179 258.913 53.8502 258.871 53.9977C258.83 54.1452 258.832 54.3015 258.877 54.4479C258.923 54.5942 259.009 54.7243 259.127 54.8224C259.245 54.9206 259.388 54.9826 259.54 55.0011Z" fill="#263238"/>
<path d="M273.395 58.1132C272.949 57.9385 272.512 57.7415 272.086 57.523C271.603 57.3741 271.181 57.0729 270.884 56.6644C270.813 56.5173 270.794 56.3506 270.829 56.1911C270.864 56.0315 270.951 55.8883 271.077 55.7844C271.356 55.6181 271.675 55.5303 272 55.5303C272.325 55.5303 272.644 55.6181 272.923 55.7844C273.547 56.0177 274.061 56.4775 274.361 57.0722C274.417 57.2104 274.433 57.3617 274.406 57.5084C274.379 57.6551 274.311 57.7911 274.21 57.9004C274.108 58.0097 273.978 58.0878 273.834 58.1255C273.689 58.1632 273.537 58.159 273.395 58.1132Z" fill="#263238"/>
<path d="M269.081 62.3521C269.081 62.3521 269.177 62.4486 269.156 62.5023C268.78 63.8545 268.566 65.475 269.693 66.237C269.693 66.237 269.693 66.3336 269.693 66.3121C268.201 65.7326 268.501 63.5862 269.081 62.3521Z" fill="#263238"/>
<path d="M270.659 61.2256C272.902 61.6119 271.979 66.0657 269.897 65.7115C267.815 65.3574 268.78 60.9143 270.659 61.2256Z" fill="#263238"/>
<path d="M271.485 61.6437C271.818 61.9764 272.107 62.5023 272.558 62.6418C273.009 62.7813 273.631 62.4271 274.05 62.0515C274.05 62.0515 274.125 62.0515 274.114 62.1267C273.942 62.9745 273.438 63.7901 272.494 63.7257C271.549 63.6613 271.195 62.792 271.163 61.8798C271.163 61.7188 271.345 61.5149 271.485 61.6437Z" fill="#263238"/>
<path d="M261.483 60.4204C261.483 60.4204 261.365 60.4204 261.354 60.517C261.129 61.9121 260.624 63.4683 259.283 63.6722C259.283 63.6722 259.229 63.758 259.283 63.758C260.85 63.8439 261.494 61.7726 261.483 60.4204Z" fill="#263238"/>
<path d="M260.538 58.7357C258.392 58.1239 257.319 62.5455 259.315 63.1143C261.311 63.6831 262.373 59.2937 260.538 58.7357Z" fill="#263238"/>
<path d="M259.54 58.8001C259.143 58.9503 258.693 59.2937 258.263 59.2186C257.834 59.1435 257.534 58.5747 257.33 58.0381C257.33 58.0381 257.265 58.0381 257.255 58.0381C257.029 58.8859 257.094 59.8303 257.866 60.1845C258.639 60.5386 259.294 59.9162 259.701 59.1113C259.777 59.004 259.712 58.7464 259.54 58.8001Z" fill="#263238"/>
<path d="M266.462 73.5242C266.076 73.7925 265.679 74.1896 265.164 74.1574C264.65 74.0584 264.161 73.8578 263.726 73.5672C263.726 73.5672 263.629 73.5672 263.651 73.6316C263.801 73.9429 264.033 74.2074 264.322 74.3965C264.612 74.5856 264.947 74.6922 265.293 74.7047C265.591 74.6747 265.874 74.5566 266.105 74.3656C266.336 74.1745 266.505 73.919 266.591 73.6316C266.623 73.535 266.538 73.4813 266.462 73.5242Z" fill="#263238"/>
<path d="M261.633 70.1114C261.995 71.0291 262.586 71.8384 263.35 72.4617C263.779 72.7838 264.296 72.9673 264.831 72.9875C266.012 72.9875 266.323 72.0109 266.366 71.0987C266.387 70.6127 266.348 70.126 266.248 69.6499C264.797 70.2866 263.182 70.4481 261.633 70.1114Z" fill="#263238"/>
<path d="M263.318 72.4616C263.746 72.7838 264.263 72.9673 264.799 72.9875C265.979 72.9875 266.291 72.0109 266.333 71.0987C265.751 70.9541 265.136 71.0099 264.589 71.2572C264.042 71.5044 263.594 71.9287 263.318 72.4616Z" fill="#FF9CBD"/>
<path d="M261.794 67.2887C261.794 67.2887 261.064 69.2848 260.85 70.2507C260.85 70.3366 261.054 70.4332 261.386 70.5297C262.187 70.8636 263.063 70.9711 263.921 70.8405C264.778 70.7099 265.583 70.3462 266.248 69.7892C266.264 69.7713 266.273 69.7486 266.275 69.7246C266.276 69.7007 266.27 69.6769 266.256 69.6572C266.242 69.6374 266.223 69.6228 266.2 69.6156C266.177 69.6084 266.152 69.6091 266.13 69.6175C264.708 70.194 263.139 70.2956 261.655 69.9073C261.655 69.6175 263.028 66.5267 262.878 66.4838C262.109 66.377 261.329 66.377 260.56 66.4838C261.977 62.2876 264.048 58.349 265.389 54.1421C265.397 54.1109 265.394 54.0778 265.38 54.0486C265.367 54.0194 265.343 53.9958 265.314 53.9819C265.285 53.968 265.252 53.9646 265.221 53.9723C265.189 53.98 265.162 53.9983 265.142 54.0241C262.795 58.1792 260.868 62.558 259.39 67.0955C259.218 67.6536 261.376 67.3638 261.794 67.2887Z" fill="#263238"/>
<path d="M285.018 68.8236C285.018 68.8236 290.523 63.1143 293.174 65.1855C295.825 67.2568 291.028 76.014 287.368 76.7438C286.911 76.8686 286.432 76.8997 285.963 76.8352C285.493 76.7706 285.041 76.6118 284.634 76.3682C284.227 76.1247 283.873 75.8014 283.594 75.4178C283.316 75.0342 283.117 74.5982 283.011 74.1359L285.018 68.8236Z" fill="#EB9481"/>
<path d="M291.725 67.6647C291.779 67.6647 291.779 67.7399 291.725 67.7506C289.182 68.3408 287.572 70.3692 286.359 72.537C286.536 72.3193 286.758 72.1424 287.01 72.0186C287.262 71.8948 287.537 71.827 287.818 71.8199C288.098 71.8127 288.377 71.8664 288.635 71.9772C288.892 72.0881 289.123 72.2534 289.311 72.4619C289.375 72.4619 289.311 72.6121 289.225 72.58C288.826 72.3773 288.373 72.3046 287.93 72.3719C287.488 72.4393 287.077 72.6434 286.757 72.9556C286.221 73.4792 285.742 74.0584 285.329 74.6834C285.19 74.8766 284.814 74.6834 284.932 74.4688C285.351 71.3458 288.398 67.4501 291.725 67.6647Z" fill="#263238"/>
<path d="M357.437 246.673H358.725V245.868H357.448H354.443V246.673H357.437ZM364.101 246.555C365.561 246.501 366.988 246.426 368.394 246.34V245.536C366.988 245.621 365.561 245.697 364.101 245.75V246.555ZM349.077 246.491V245.686C347.671 245.632 346.243 245.557 344.784 245.46L344.73 246.265C346.201 246.362 347.639 246.437 349.045 246.491H349.077ZM373.76 245.9C375.22 245.761 376.658 245.6 378.053 245.417L377.946 244.613C376.572 244.795 375.145 244.956 373.653 245.106L373.76 245.9ZM339.418 245.9L339.482 245.096C338.077 244.977 336.649 244.838 335.19 244.688L335.104 245.482C336.553 245.611 337.98 245.739 339.397 245.868L339.418 245.9ZM329.759 244.827L329.867 244.022L325.574 243.443L325.456 244.237C326.948 244.462 328.364 244.656 329.77 244.838L329.759 244.827ZM383.344 244.591C384.782 244.344 386.209 244.065 387.572 243.775L387.411 242.992C386.048 243.282 384.632 243.55 383.215 243.808L383.344 244.591ZM320.197 243.432L320.326 242.638L316.098 241.897L315.958 242.692L320.197 243.432ZM392.809 242.509C394.237 242.123 395.621 241.704 396.941 241.264L396.694 240.502C395.385 240.942 394 241.35 392.605 241.736L392.809 242.509ZM310.678 241.683L310.839 240.889C309.455 240.61 308.049 240.32 306.643 240.009L306.471 240.803C307.898 241.103 309.294 241.404 310.689 241.736L310.678 241.683ZM301.234 239.612L301.416 238.828C300.032 238.506 298.647 238.163 297.252 237.819L297.059 238.603C298.465 238.946 299.807 239.29 301.245 239.59L301.234 239.612ZM401.996 239.386C403.369 238.807 404.689 238.195 405.913 237.551L405.548 236.843C404.335 237.465 403.037 238.066 401.685 238.635L401.996 239.386ZM291.854 237.24L292.058 236.456C290.695 236.091 289.311 235.716 287.926 235.319L287.712 236.091C289.075 236.499 290.491 236.875 291.865 237.251L291.854 237.24ZM410.571 234.771C411.767 233.96 412.901 233.06 413.962 232.078L413.414 231.487C412.378 232.45 411.273 233.336 410.109 234.138L410.571 234.771ZM282.56 234.6L282.796 233.838C281.433 233.43 280.071 233.001 278.697 232.571L278.45 233.344L282.56 234.6ZM273.342 231.691L273.599 230.929C272.247 230.489 270.895 230.028 269.532 229.556L269.274 230.318C270.637 230.79 271.989 231.251 273.342 231.691ZM264.209 228.536L264.477 227.774L260.453 226.293L260.174 227.055C261.515 227.56 262.867 228.053 264.209 228.536ZM417.45 227.871C418.238 226.628 418.828 225.27 419.199 223.846L418.426 223.642C418.07 224.987 417.517 226.271 416.784 227.452L417.45 227.871ZM255.151 225.134L255.441 224.383L251.459 222.805L251.159 223.557L255.151 225.134ZM246.19 221.507L246.501 220.766L242.552 219.092L242.23 219.833L246.19 221.507ZM418.684 218.48L419.478 218.373C419.277 216.935 418.917 215.524 418.405 214.166L417.654 214.445C418.145 215.748 418.491 217.101 418.684 218.48ZM237.315 217.675L237.647 216.935L236.939 216.613C235.866 216.141 234.793 215.647 233.719 215.153L233.376 215.883L236.596 217.354L237.315 217.675ZM228.557 213.554L228.922 212.825C227.634 212.195 226.357 211.551 225.091 210.893L224.715 211.601C225.992 212.267 227.28 212.911 228.557 213.554ZM415.293 209.702L415.979 209.294C415.239 208.054 414.433 206.853 413.565 205.699L412.921 206.182C413.778 207.313 414.577 208.488 415.314 209.702H415.293ZM219.972 209.079L220.358 208.371C219.103 207.695 217.847 206.997 216.602 206.3L216.216 206.997C217.45 207.706 218.705 208.403 219.961 209.079H219.972ZM211.558 204.304L211.966 203.617C210.732 202.887 209.508 202.157 208.285 201.406L207.866 202.093C209.079 202.844 210.313 203.574 211.547 204.304H211.558ZM409.54 202.028L410.141 201.492C409.229 200.472 408.231 199.41 407.179 198.358L406.6 198.927C407.651 200 408.639 201.052 409.54 202.028ZM203.305 199.227L203.734 198.551L200.129 196.233L199.689 196.899L203.305 199.227ZM402.726 195.278L403.262 194.677C402.189 193.743 401.116 192.788 400.043 191.844L399.527 192.456C400.601 193.443 401.695 194.344 402.726 195.278ZM195.224 193.958L195.675 193.293C194.494 192.498 193.325 191.694 192.155 190.878L191.693 191.533C192.863 192.37 194.044 193.164 195.224 193.958ZM395.32 189.086L395.814 188.453C394.741 187.572 393.55 186.703 392.391 185.834L391.908 186.478C393.074 187.336 394.212 188.206 395.32 189.086ZM187.293 188.431L187.765 187.776C186.606 186.939 185.447 186.102 184.299 185.254L183.816 185.898L187.293 188.431ZM387.583 183.333L388.044 182.679C386.871 181.849 385.69 181.033 384.503 180.232L384.052 180.897C385.233 181.702 386.413 182.507 387.583 183.333ZM179.523 182.711L180.017 182.078C178.869 181.208 177.742 180.339 176.615 179.459L176.121 180.092C177.248 180.94 178.386 181.809 179.523 182.711ZM379.577 177.967L380.006 177.291C378.804 176.508 377.591 175.735 376.368 174.984L375.939 175.66C377.162 176.39 378.364 177.152 379.577 177.935V177.967ZM171.893 176.765L172.397 176.143L169.06 173.449L168.555 174.072L171.893 176.765ZM371.367 172.859L371.775 172.172C370.537 171.457 369.303 170.741 368.072 170.026L367.664 170.723C368.899 171.357 370.133 172.086 371.367 172.827V172.859ZM164.413 170.648L164.928 170.026C163.855 169.103 162.728 168.18 161.655 167.257L161.129 167.869L164.413 170.648ZM362.953 168.019L363.35 167.321C362.084 166.613 360.817 165.926 359.573 165.25L359.197 165.958C360.474 166.613 361.73 167.289 362.996 167.987L362.953 168.019ZM157.072 164.316L157.609 163.715C156.536 162.771 155.462 161.816 154.389 160.871L153.853 161.472C154.926 162.417 155.999 163.394 157.072 164.316ZM354.539 163.394L354.904 162.685L351.073 160.721L350.708 161.44C351.921 162.084 353.198 162.728 354.539 163.394ZM345.889 159.101L346.233 158.382C344.881 157.738 343.582 157.126 342.326 156.557L341.994 157.287C343.196 157.845 344.505 158.457 345.846 159.101H345.889ZM149.892 157.888L150.44 157.287C149.367 156.321 148.293 155.345 147.274 154.379L146.727 154.969L149.892 157.888ZM337.036 155.13L337.347 154.379C336.113 153.864 334.964 153.402 333.902 153.005L333.623 153.756C334.664 154.153 335.812 154.615 337.036 155.13ZM142.788 151.277L143.346 150.698L140.245 147.725L139.686 148.304L142.788 151.277ZM135.844 144.548L136.413 143.979C135.34 142.96 134.363 141.951 133.365 140.942L132.797 141.511C133.773 142.52 134.793 143.529 135.823 144.548H135.844ZM129.019 137.691L129.598 137.122C128.579 136.049 127.592 135.061 126.615 134.042L126.035 134.6L129.019 137.691ZM122.333 130.704L122.912 130.146L119.983 127.012L119.392 127.56L122.333 130.704ZM115.765 123.589L116.355 123.052C115.368 121.979 114.413 120.906 113.49 119.833L112.889 120.369C113.79 121.432 114.756 122.494 115.744 123.589H115.765ZM109.326 116.356L109.927 115.83C108.95 114.703 108.006 113.619 107.115 112.61L106.503 113.125C107.394 114.145 108.328 115.229 109.315 116.356H109.326ZM103.026 108.993L103.649 108.478C102.651 107.287 101.738 106.182 100.901 105.162L100.279 105.667C101.105 106.686 102.017 107.802 103.016 108.993H103.026ZM96.8983 101.481L97.5315 100.977C95.7929 98.8303 94.8807 97.5747 94.8807 97.5747L94.2368 98.0576C94.2368 98.0576 95.1383 99.2703 96.8876 101.481H96.8983Z" fill="#263238"/>
<path d="M92.3157 74.6942L95.3958 99.3561L81.1008 81.7772L20.1007 42.4019L92.3157 74.6942Z" fill="#4831D4"/>
<path opacity="0.4" d="M92.3157 74.6942L95.3958 99.3561L81.1008 81.7772L20.1007 42.4019L92.3157 74.6942Z" fill="white"/>
<path d="M77.6559 86.5745L95.3958 99.3562L81.1008 81.7773L77.6559 86.5745Z" fill="#4831D4"/>
<path opacity="0.3" d="M77.6559 86.5745L95.3958 99.3562L81.1008 81.7773L77.6559 86.5745Z" fill="white"/>
<path d="M81.1008 81.7772L20.1007 42.4019L62.4703 108.156L81.1008 81.7772Z" fill="#4831D4"/>
<path opacity="0.7" d="M81.1008 81.7772L20.1007 42.4019L62.4703 108.156L81.1008 81.7772Z" fill="white"/>
<path d="M92.3158 74.6942L124.061 63.1788L20.1008 42.4019L92.3158 74.6942Z" fill="#4831D4"/>
<path opacity="0.7" d="M92.3158 74.6942L124.061 63.1788L20.1008 42.4019L92.3158 74.6942Z" fill="white"/>
<path d="M357.855 31.8846C357.856 37.3347 356.343 42.6778 353.483 47.3176C350.624 51.9573 346.532 55.7112 341.663 58.1601C336.794 60.609 331.34 61.6566 325.911 61.186C320.481 60.7153 315.289 58.745 310.914 55.4948L296.501 59.1759L302.5 45.761C300.391 41.8179 299.209 37.4459 299.043 32.9773C298.877 28.5087 299.733 24.0612 301.544 19.9727C303.355 15.8843 306.074 12.2626 309.495 9.3829C312.916 6.50321 316.949 4.44135 321.286 3.35405C325.624 2.26674 330.152 2.18261 334.527 3.10805C338.902 4.03349 343.008 5.94413 346.534 8.69476C350.059 11.4454 352.911 14.9636 354.873 18.9819C356.835 23.0003 357.855 27.413 357.855 31.8846Z" fill="white"/>
<path d="M357.855 31.8845C357.394 56.4069 330.467 69.3496 310.817 55.1298L296.383 58.725L296.93 59.3689L302.972 45.9755L303.069 45.7394C293.99 29.3947 303.208 8.17773 321.313 3.6596C339.504 -1.29854 357.909 13.0715 357.802 31.8845H357.855ZM357.855 31.8845C357.78 6.84697 328.579 -6.85767 309.24 9.07921C298.561 17.7291 295.288 33.9772 302.039 46.0077V45.5462L296.082 58.9826L295.685 59.8841L296.619 59.6372L311.01 55.8703C329.437 69.8218 357.705 56.7074 357.866 31.8845H357.855Z" fill="#263238"/>
<path d="M326.142 49.925L312.953 36.5745L317.385 32.2066L325.08 39.9979L341.081 14.9175L346.329 18.2658L326.142 49.925Z" fill="#4831D4"/>
</svg>
