<svg width="86" height="120" viewBox="0 0 86 120" fill="none" xmlns="http://www.w3.org/2000/svg">
<path d="M42.4966 119.697L7.86551 110.083L0.147949 23.5233H84.9491L77.2235 110.07L42.4966 119.697Z" fill="#264DE4"/>
<path d="M70.6095 104.559L77.2112 30.6007H42.5485V112.338L70.6095 104.559Z" fill="#2965F1"/>
<path d="M17.8401 62.7045L18.7915 73.3207H42.5485V62.7045H17.8401ZM15.9281 41.2172L16.8931 51.8333H42.5485V41.2172H15.9281ZM42.5485 90.2759L42.502 90.2882L30.6788 87.0957L29.9229 78.6289H19.2658L20.753 95.2979L42.4996 101.335L42.5485 101.321V90.2759Z" fill="#EBEBEB"/>
<path d="M20.1055 0H32.9631V5.37706H25.4825V10.7541H32.9638V16.1309H20.1055V0ZM35.5349 0H48.3929V4.67568H40.912V5.61075H48.3929V16.3649H35.5353V11.4548H43.0162V10.5198H35.5346L35.5349 0ZM50.9647 0H63.8227V4.67568H56.3418V5.61075H63.8227V16.3649H50.9647V11.4548H58.4456V10.5198H50.9651L50.9647 0Z" fill="black"/>
<path d="M67.189 62.7045L69.1054 41.2172H42.5119V51.8333H57.471L56.5051 62.7045H42.5119V73.3207H55.5846L54.352 87.0891L42.5116 90.2849V101.33L64.2755 95.2979L64.435 93.5043L66.9301 65.5552L67.189 62.7045Z" fill="white"/>
</svg>
