<svg width="285" height="120" viewBox="0 0 285 120" fill="none" xmlns="http://www.w3.org/2000/svg">
<path d="M169.982 41.3488C163.763 41.3488 159.132 44.4022 159.132 51.7511C159.132 57.2877 162.184 61.1322 169.647 61.1322C175.972 61.1322 180.269 57.4044 180.269 51.5211C180.269 44.8544 176.424 41.3488 169.982 41.3488ZM157.549 93.2388C156.077 95.0444 154.61 96.9644 154.61 99.2277C154.61 103.747 160.372 105.107 168.288 105.107C174.843 105.107 183.774 104.647 183.774 98.5511C183.774 94.9277 179.478 94.7044 174.049 94.3644L157.549 93.2388ZM191.008 41.69C193.039 44.29 195.19 47.9088 195.19 53.1077C195.19 65.6544 185.356 73.0011 171.116 73.0011C167.494 73.0011 164.217 72.55 162.184 71.9855L158.452 77.9744L169.529 78.6522C189.087 79.8988 200.612 80.4655 200.612 95.4933C200.612 108.496 189.199 115.839 169.529 115.839C149.07 115.839 141.27 110.639 141.27 101.71C141.27 96.6233 143.531 93.9155 147.488 90.1788C143.757 88.6022 142.514 85.7777 142.514 82.7233C142.514 80.2344 143.757 77.9755 145.794 75.8255C147.828 73.6811 150.088 71.5311 152.801 69.0444C147.263 66.3311 143.079 60.4533 143.079 52.0866C143.079 39.09 151.671 30.1633 168.962 30.1633C173.824 30.1633 176.764 30.61 179.364 31.2933L201.409 31.2933L201.409 40.8977L191.008 41.69ZM221.296 21.1488C214.851 21.1488 211.121 17.4155 211.121 10.97C211.121 4.53329 214.85 1.02551 221.296 1.02551C227.851 1.02551 231.582 4.53329 231.582 10.97C231.582 17.4155 227.852 21.1488 221.296 21.1488ZM206.711 89.0788L206.711 80.1533L212.478 79.3644C214.061 79.1366 214.286 78.7988 214.286 77.1L214.286 43.8666C214.286 42.6266 213.948 41.8311 212.813 41.4955L206.711 39.3455L207.953 30.1922L231.354 30.1922L231.354 77.1C231.354 78.9111 231.463 79.1366 233.164 79.3655L238.929 80.1544L238.929 89.0788L206.711 89.0788ZM283.63 84.6966C278.768 87.0688 271.647 89.2166 265.201 89.2166C251.75 89.2166 246.666 83.7966 246.666 71.0166L246.666 41.4044C246.666 40.7266 246.666 40.2744 245.758 40.2744L237.847 40.2744L237.847 30.2111C247.797 29.0777 251.75 24.1044 252.993 11.7833L263.733 11.7833L263.733 27.8388C263.733 28.6277 263.733 28.9688 264.639 28.9688L280.576 28.9688L280.576 40.2722L263.733 40.2722L263.733 67.2866C263.733 73.9555 265.318 76.5533 271.419 76.5533C274.588 76.5533 277.862 75.7644 280.574 74.7466L283.63 84.6966Z" fill="#2F2707"/>
<path d="M116.143 55.0333L64.4589 3.35222C63.7511 2.64419 62.9107 2.08253 61.9858 1.69933C61.0609 1.31613 60.0695 1.1189 59.0684 1.1189C58.0672 1.1189 57.0758 1.31613 56.1509 1.69933C55.226 2.08253 54.3856 2.64419 53.6778 3.35222L42.9456 14.0856L56.56 27.6989C58.1603 27.1547 59.8811 27.0695 61.5273 27.453C63.1735 27.8365 64.6795 28.6734 65.8745 29.8689C67.0759 31.0719 67.9147 32.5886 68.2951 34.2457C68.6755 35.9028 68.5821 37.6335 68.0256 39.24L81.1445 52.3611C84.3189 51.2678 87.9822 51.9756 90.5167 54.5145C91.3593 55.3566 92.0278 56.3564 92.4838 57.4569C92.9399 58.5575 93.1746 59.7371 93.1746 60.9283C93.1746 62.1196 92.9399 63.2992 92.4838 64.3997C92.0278 65.5003 91.3593 66.5001 90.5167 67.3422C89.0342 68.8261 87.0833 69.7504 84.996 69.9577C82.9088 70.165 80.8142 69.6426 79.0687 68.4793C77.3233 67.3161 76.035 65.5839 75.423 63.5776C74.811 61.5713 74.9132 59.415 75.7122 57.4756L63.4767 45.24L63.4756 77.44C64.3626 77.8786 65.1727 78.458 65.8745 79.1556C66.717 79.9979 67.3854 80.998 67.8414 82.0987C68.2974 83.1994 68.5321 84.3792 68.5321 85.5706C68.5321 86.762 68.2974 87.9417 67.8414 89.0424C67.3854 90.1431 66.717 91.1432 65.8745 91.9856C62.33 95.53 56.5856 95.53 53.0467 91.9856C51.9894 90.9291 51.2096 89.6278 50.7766 88.1972C50.3435 86.7667 50.2707 85.2514 50.5645 83.7859C50.8583 82.3204 51.5096 80.9503 52.4606 79.7972C53.4116 78.6442 54.6328 77.744 56.0156 77.1767L56.0156 44.6767C54.9032 44.2224 53.8936 43.5491 53.0467 42.6967C50.3622 40.0156 49.7167 36.0767 51.0923 32.78L37.6722 19.3578L2.23447 54.7933C1.52633 55.5014 0.964598 56.3421 0.581353 57.2673C0.198108 58.1925 0.000854301 59.1841 0.000854297 60.1856C0.000854294 61.187 0.198108 62.1786 0.581353 63.1038C0.964598 64.029 1.52633 64.8697 2.23447 65.5778L53.9189 117.26C55.3487 118.689 57.2877 119.492 59.3095 119.492C61.3312 119.492 63.2702 118.689 64.7 117.26L116.143 65.8189C117.573 64.3883 118.376 62.4486 118.376 60.4261C118.376 58.4036 117.573 56.4639 116.143 55.0333Z" fill="#DE4C36"/>
</svg>
