<svg width="86" height="120" viewBox="0 0 86 120" fill="none" xmlns="http://www.w3.org/2000/svg">
<path d="M84.9491 23.5233L77.2235 110.07L42.4966 119.697L7.86551 110.083L0.147949 23.5233H84.9491Z" fill="#E44D26"/>
<path d="M42.5485 112.338L70.6095 104.559L77.2112 30.6007H42.5485V112.338Z" fill="#F16529"/>
<path d="M27.5302 51.8333H42.5485V41.2172H15.9281L16.1821 44.0653L18.7915 73.3207H42.5485V62.7045H28.5005L27.5302 51.8333ZM29.9229 78.6289H19.2658L20.753 95.2979L42.4996 101.335L42.5485 101.321V90.2759L42.502 90.2882L30.6788 87.0957L29.9229 78.6289Z" fill="#EBEBEB"/>
<path d="M8.03772 0H13.4327V5.33019H18.368V0H23.7634V16.1412H18.3684V10.7362H13.4331V16.1412H8.03805L8.03772 0ZM30.8577 5.3528H26.1089V0H41.0055V5.3528H36.2537V16.1412H30.8587V5.3528H30.8577ZM43.3696 0H48.9949L52.4553 5.67158L55.9124 0H61.5401V16.1412H56.167V8.14072L52.4553 13.8798H52.3623L48.6482 8.14072V16.1412H43.3696V0ZM64.225 0H69.6217V10.806H77.2086V16.1412H64.2246L64.225 0Z" fill="black"/>
<path d="M42.5119 73.3207H55.5846L54.352 87.0891L42.5116 90.2849V101.33L64.2755 95.2979L64.435 93.5043L66.9301 65.5552L67.189 62.7045H42.5119V73.3207ZM42.5119 51.8074V51.8333H68.155L68.3678 49.4473L68.8518 44.0653L69.1054 41.2172H42.5119V51.8074Z" fill="white"/>
</svg>
