<svg width="32" height="32" viewBox="0 0 32 32" fill="none" xmlns="http://www.w3.org/2000/svg">
<path d="M9.80518 14.8093V12.6693C9.80518 12.5426 9.80518 12.492 9.97051 12.492C11.3878 12.492 12.5398 12.4079 13.1118 12.7453C13.6852 13.0813 13.7092 13.5453 13.7185 13.6839C13.7292 13.8226 13.7238 14.0213 13.4572 14.5053C13.1905 14.9893 11.9972 14.9986 11.1358 14.9986H9.99584C9.85584 14.9986 9.80518 14.948 9.80518 14.8093ZM13.7332 17.0519C13.865 17.2206 13.9591 17.4156 14.009 17.6238C14.059 17.8319 14.0636 18.0484 14.0227 18.2585C13.9817 18.4686 13.8961 18.6675 13.7716 18.8416C13.6471 19.0158 13.4867 19.1612 13.3012 19.2679C13.0283 19.3824 12.7357 19.4426 12.4398 19.4453H9.98251C9.85584 19.4453 9.80518 19.4453 9.80518 19.2813V16.7479C9.80518 16.6213 9.80518 16.5706 9.97051 16.5706H11.6038C12.6172 16.5706 13.2505 16.4826 13.7332 17.0519Z" fill="white"/>
<path d="M22.6522 15.8786C22.5843 15.7183 22.4812 15.5754 22.3506 15.4605C22.2199 15.3455 22.0651 15.2615 21.8975 15.2146C21.5626 15.1233 21.2121 15.104 20.8692 15.158C20.5263 15.212 20.1988 15.3381 19.9082 15.5279C19.6183 15.8203 19.4311 16.1988 19.3748 16.6066C19.3748 16.7493 19.3748 16.7759 19.5442 16.7759H22.7042C22.8602 16.7759 22.8602 16.7759 22.8468 16.5799C22.8316 16.3349 22.7662 16.096 22.6522 15.8786ZM22.6522 15.8786C22.5843 15.7183 22.4799 15.5754 22.3493 15.4605C22.2186 15.3455 22.0651 15.2615 21.8975 15.2146C21.5626 15.1233 21.2108 15.104 20.8679 15.158C20.525 15.212 20.1988 15.3381 19.9082 15.5279C19.6183 15.8203 19.4298 16.1988 19.3735 16.6066C19.3735 16.7493 19.3735 16.7759 19.5428 16.7759H22.7042C22.8602 16.7759 22.8602 16.7759 22.8468 16.5799C22.8316 16.3349 22.7635 16.096 22.6495 15.8786M24.1335 3.33325H8.5335C7.15437 3.33325 5.83173 3.88111 4.85654 4.8563C3.88135 5.83149 3.3335 7.15413 3.3335 8.53325V24.1333C3.3335 25.5124 3.88135 26.835 4.85654 27.8102C5.83173 28.7854 7.15437 29.3333 8.5335 29.3333H24.1335C25.5126 29.3333 26.8353 28.7854 27.8105 27.8102C28.7856 26.835 29.3335 25.5124 29.3335 24.1333V8.53325C29.3335 7.15413 28.7856 5.83149 27.8105 4.8563C26.8353 3.88111 25.5126 3.33325 24.1335 3.33325ZM19.0375 11.6133C19.0375 11.5106 19.0375 11.4706 19.1548 11.4706H23.3668V12.5639C23.3668 12.5639 23.3708 12.6413 23.3015 12.6413H19.2202C19.0375 12.6413 19.0375 12.6413 19.0375 12.4599V11.6133ZM15.1375 21.1693C13.5375 22.0399 10.8482 21.6893 7.66283 21.6893V10.9119H12.7455C14.0455 10.9119 15.5922 11.2373 16.0082 12.6146C16.2242 13.2162 16.211 13.8762 15.9712 14.4687C15.7314 15.0612 15.2818 15.5446 14.7082 15.8266C15.2369 16.0222 15.6985 16.3653 16.0384 16.8151C16.3782 17.2649 16.5821 17.8027 16.6259 18.3648C16.6696 18.9269 16.5515 19.4897 16.2853 19.9867C16.0192 20.4837 15.6162 20.8941 15.1242 21.1693H15.1375ZM24.8228 18.1013H19.6228C19.4802 18.1013 19.3495 18.1786 19.3748 18.3613C19.5308 19.1279 19.8815 19.9346 20.6762 20.0519C21.0958 20.1761 21.5449 20.1565 21.9521 19.9964C22.3594 19.8362 22.7015 19.5447 22.9242 19.1679C22.9242 19.1679 22.9895 19.0893 23.0282 19.0893H24.7188C24.7188 19.0893 24.8228 19.0893 24.7962 19.1799C24.6191 19.6853 24.3551 20.156 24.0162 20.5706C23.5642 21.0019 23.0189 21.3234 22.4227 21.51C21.8264 21.6966 21.1951 21.7434 20.5779 21.6467C19.9606 21.55 19.3739 21.3124 18.8633 20.9524C18.3527 20.5923 17.9319 20.1195 17.6335 19.5706C17.4491 19.2048 17.3347 18.8078 17.2962 18.3999C17.0643 17.3754 17.2415 16.3008 17.7902 15.405C18.3388 14.5092 19.2155 13.8629 20.2335 13.6039C23.1842 12.9666 25.0562 14.9946 25.0562 17.8546C25.0605 17.888 25.0572 17.922 25.0463 17.9539C25.0355 17.9858 25.0174 18.0148 24.9936 18.0387C24.9697 18.0625 24.9407 18.0806 24.9088 18.0914C24.8769 18.1023 24.8429 18.1056 24.8095 18.1013H24.8228ZM21.9108 15.2146C21.576 15.1235 21.2256 15.1045 20.8828 15.1586C20.5402 15.2119 20.2335 15.2773 19.9215 15.5279C19.6095 15.7773 19.4442 16.1986 19.3882 16.6066C19.3882 16.7493 19.3882 16.7759 19.5575 16.7759H22.7042C22.8602 16.7759 22.8602 16.7759 22.8468 16.5799C22.8316 16.3349 22.7662 16.096 22.6522 15.8786C22.5843 15.7183 22.4812 15.5754 22.3506 15.4605C22.2199 15.3455 22.0651 15.2615 21.8975 15.2146H21.9108Z" fill="white"/>
</svg>
