<svg width="120" height="120" viewBox="0 0 120 120" fill="none" xmlns="http://www.w3.org/2000/svg">
<path d="M59.815 11.91C2.77003 13.105 -9.09997 89.65 44.26 108.01C46.75 108.475 47.68 106.915 47.68 105.62V97.22C33.73 100.225 30.78 90.635 30.78 90.635C29.8439 87.6336 27.8529 85.0725 25.175 83.425C20.665 80.365 25.535 80.415 25.535 80.415C27.13 80.6251 28.6542 81.2034 29.9872 82.1042C31.3201 83.005 32.4252 84.2035 33.215 85.605C34.6294 88.0671 36.9537 89.8756 39.6878 90.6415C42.422 91.4073 45.3476 91.0692 47.835 89.7C48.095 87.2 49.21 84.875 51 83.115C39.85 81.865 28.18 77.615 28.18 58.74C28.111 53.8221 29.9745 49.0734 33.37 45.515C31.7994 41.2287 31.9845 36.4956 33.885 32.345C33.885 32.345 38.085 31.045 47.685 37.53C55.9031 35.2999 64.567 35.2999 72.785 37.53C82.325 31.15 86.525 32.34 86.525 32.34C88.35 36.48 88.515 41.155 86.99 45.41C90.3842 48.9689 92.246 53.7177 92.175 58.635C92.175 77.565 80.455 81.765 69.305 82.96C74.495 85.71 72.315 103.39 72.625 105.57C72.625 106.865 73.505 108.42 76.1 107.955C129.31 89.755 116.86 13.105 59.815 11.91Z" fill="black"/>
</svg>
