<svg width="196" height="120" viewBox="0 0 196 120" fill="none" xmlns="http://www.w3.org/2000/svg">
<path d="M96.9211 120C96.2569 120 95.6367 119.823 95.0607 119.513L89.1694 116.014C88.2833 115.526 88.7264 115.349 88.9924 115.261C90.1882 114.862 90.4097 114.773 91.65 114.065C91.783 113.976 91.9604 114.02 92.093 114.109L96.6114 116.811C96.7885 116.899 97.01 116.899 97.1426 116.811L114.817 106.578C114.994 106.49 115.083 106.312 115.083 106.091V85.6705C115.083 85.4485 114.994 85.2719 114.817 85.1829L97.1426 74.9948C96.9656 74.9059 96.744 74.9059 96.6114 74.9948L78.9369 85.1829C78.7598 85.2715 78.6709 85.493 78.6709 85.6701V106.091C78.6709 106.268 78.7598 106.489 78.9369 106.578L83.7653 109.369C86.3788 110.698 88.0177 109.147 88.0177 107.597V87.4419C88.0177 87.1763 88.2392 86.9103 88.5493 86.9103H90.8083C91.0743 86.9103 91.3399 87.1319 91.3399 87.4419V107.597C91.3399 111.096 89.435 113.134 86.1128 113.134C85.0941 113.134 84.2969 113.134 82.0375 112.026L77.3865 109.369C76.2348 108.705 75.5261 107.464 75.5261 106.135V85.7145C75.5261 84.3857 76.2348 83.1451 77.3865 82.4809L95.0607 72.2483C96.1683 71.6282 97.6746 71.6282 98.7819 72.2483L116.456 82.4809C117.608 83.1451 118.317 84.3857 118.317 85.7145V106.135C118.317 107.464 117.608 108.705 116.456 109.369L98.7819 119.601C98.2058 119.867 97.5412 120 96.9211 120ZM102.37 105.958C94.6184 105.958 93.0236 102.414 93.0236 99.4023C93.0236 99.1363 93.2451 98.8707 93.5552 98.8707H95.8587C96.1243 98.8707 96.3458 99.0478 96.3458 99.3138C96.7003 101.661 97.7191 102.813 102.415 102.813C106.135 102.813 107.73 101.971 107.73 99.978C107.73 98.8262 107.287 97.985 101.484 97.4089C96.6559 96.9214 93.6437 95.8586 93.6437 92.0048C93.6437 88.4166 96.6562 86.2902 101.706 86.2902C107.376 86.2902 110.167 88.2395 110.521 92.4915C110.521 92.6249 110.477 92.7575 110.388 92.8905C110.299 92.9791 110.167 93.0676 110.034 93.0676H107.73C107.509 93.0676 107.287 92.8905 107.243 92.669C106.711 90.2329 105.338 89.4353 101.706 89.4353C97.6305 89.4353 97.143 90.8531 97.143 91.9159C97.143 93.2006 97.7191 93.5992 103.212 94.3079C108.66 95.0169 111.23 96.0356 111.23 99.845C111.185 103.743 107.996 105.958 102.37 105.958Z" fill="#539E43"/>
<path d="M42.082 40.1332C42.082 39.336 41.639 38.5825 40.9303 38.1839L22.1485 27.3756C21.838 27.1982 21.4839 27.1096 21.1297 27.0652H20.9523C20.5981 27.0652 20.2436 27.1982 19.9336 27.3756L1.15173 38.1839C0.442678 38.5825 0 39.3356 0 40.1332L0.0444595 69.1917C0.0444595 69.5903 0.26599 69.9889 0.620133 70.1663C0.974659 70.3878 1.41734 70.3878 1.72779 70.1663L12.8906 63.7875C13.5992 63.3889 14.0423 62.6358 14.0423 61.8386V48.2394C14.0423 47.4422 14.485 46.689 15.194 46.2904L19.9336 43.5439C20.2881 43.3224 20.6867 43.2335 21.0853 43.2335C21.4839 43.2335 21.8825 43.3224 22.1929 43.5439L26.9325 46.2904C27.6415 46.689 28.0842 47.4418 28.0842 48.2394V61.8386C28.0842 62.6358 28.5273 63.3889 29.2359 63.7875L40.3987 70.1663C40.5711 70.2749 40.7708 70.3325 40.9746 70.3325C41.1783 70.3325 41.378 70.2749 41.5504 70.1663C41.905 69.9889 42.1265 69.5903 42.1265 69.1917L42.082 40.1332ZM132.359 0.133091C132.005 -0.0443636 131.562 -0.0443636 131.251 0.133091C130.897 0.354622 130.676 0.708764 130.676 1.10737V29.9006C130.676 30.1662 130.543 30.4318 130.277 30.6093C130.011 30.7419 129.745 30.7419 129.48 30.6093L124.784 27.9072C124.44 27.7112 124.051 27.6081 123.655 27.6081C123.258 27.6081 122.869 27.7112 122.525 27.9072L103.743 38.7599C103.034 39.1585 102.591 39.9117 102.591 40.7089V62.3698C102.591 63.167 103.034 63.9205 103.743 64.3191L122.525 75.1718C122.869 75.3678 123.258 75.4709 123.655 75.4709C124.051 75.4709 124.44 75.3678 124.784 75.1718L143.566 64.3191C144.275 63.9205 144.718 63.1674 144.718 62.3698V8.37227C144.718 7.53061 144.275 6.77786 143.566 6.37888L132.359 0.133091ZM130.631 55.2383C130.631 55.4598 130.543 55.6369 130.365 55.7254L123.943 59.4462C123.853 59.49 123.754 59.5127 123.655 59.5127C123.555 59.5127 123.456 59.49 123.367 59.4462L116.944 55.7254C116.766 55.6369 116.678 55.4154 116.678 55.2383V47.7963C116.678 47.5748 116.766 47.3977 116.944 47.3092L123.367 43.588C123.456 43.5442 123.555 43.5215 123.655 43.5215C123.754 43.5215 123.853 43.5442 123.943 43.588L130.365 47.3092C130.543 47.3973 130.631 47.6192 130.631 47.7963V55.2383ZM194.862 47.6192C195.571 47.2206 195.969 46.4675 195.969 45.6699V40.3988C195.969 39.6016 195.526 38.8485 194.862 38.4499L176.213 27.6416C175.869 27.4456 175.479 27.3425 175.083 27.3425C174.687 27.3425 174.298 27.4456 173.953 27.6416L155.172 38.4939C154.463 38.8925 154.02 39.6457 154.02 40.4429V62.1042C154.02 62.9014 154.463 63.6545 155.172 64.0531L173.82 74.6843C174.529 75.0829 175.371 75.0829 176.036 74.6843L187.331 68.3948C187.686 68.2174 187.907 67.8188 187.907 67.4202C187.907 67.0216 187.686 66.623 187.331 66.4455L168.461 55.5928C168.106 55.3713 167.885 55.0171 167.885 54.6185V47.8412C167.885 47.4426 168.106 47.044 168.461 46.8665L174.352 43.4998C174.524 43.3913 174.724 43.3337 174.928 43.3337C175.132 43.3337 175.331 43.3913 175.504 43.4998L181.395 46.8665C181.75 47.088 181.971 47.4422 181.971 47.8412V53.1567C181.971 53.5553 182.193 53.9539 182.547 54.131C182.72 54.2396 182.919 54.2972 183.123 54.2972C183.327 54.2972 183.526 54.2396 183.699 54.131L194.862 47.6192Z" fill="#333333"/>
<path d="M174.795 46.6002C174.861 46.5568 174.938 46.5337 175.016 46.5337C175.095 46.5337 175.172 46.5568 175.238 46.6002L178.826 48.6821C178.959 48.771 179.047 48.9036 179.047 49.0807V53.2449C179.047 53.422 178.959 53.555 178.826 53.6435L175.238 55.7255C175.172 55.7688 175.095 55.7919 175.016 55.7919C174.938 55.7919 174.861 55.7688 174.795 55.7255L171.207 53.6435C171.074 53.555 170.986 53.422 170.986 53.2449V49.0811C170.986 48.9036 171.074 48.7706 171.207 48.6825L174.795 46.6002Z" fill="#539E43"/>
<path d="M73.4881 27.7301C73.1439 27.5342 72.7547 27.4312 72.3586 27.4312C71.9626 27.4312 71.5733 27.5342 71.2291 27.7301L52.5803 38.4935C51.8713 38.8921 51.4727 39.6452 51.4727 40.4425V62.0153C51.4727 62.8125 51.9157 63.5656 52.5803 63.9642L71.2291 74.7284C71.5733 74.9243 71.9626 75.0273 72.3586 75.0273C72.7547 75.0273 73.1439 74.9243 73.4881 74.7284L92.1373 63.9642C92.846 63.5656 93.245 62.8125 93.245 62.0153V40.4428C93.245 39.6456 92.8016 38.8925 92.1373 38.4939L73.4881 27.7301Z" fill="url(#paint0_linear_596_18954)"/>
<mask id="mask0_596_18954" style="mask-type:luminance" maskUnits="userSpaceOnUse" x="51" y="27" width="43" height="49">
<path d="M73.4881 27.7301C73.1439 27.5342 72.7547 27.4312 72.3586 27.4312C71.9626 27.4312 71.5733 27.5342 71.2291 27.7301L52.5803 38.4935C51.8713 38.8921 51.4727 39.6452 51.4727 40.4425V62.0153C51.4727 62.8125 51.9157 63.5656 52.5803 63.9642L71.2291 74.7284C71.5733 74.9243 71.9626 75.0273 72.3586 75.0273C72.7547 75.0273 73.1439 74.9243 73.4881 74.7284L92.1373 63.9642C92.846 63.5656 93.245 62.8125 93.245 62.0153V40.4428C93.245 39.6456 92.8016 38.8925 92.1373 38.4939L73.4881 27.7301Z" fill="white"/>
</mask>
<g mask="url(#mask0_596_18954)">
<path d="M92.1815 38.4939L73.4441 27.7301C73.26 27.6371 73.067 27.5629 72.8681 27.5085L51.8713 63.4778C52.0453 63.6901 52.2553 63.8701 52.4919 64.0094L71.2292 74.7735C71.7608 75.0836 72.3809 75.1721 72.9566 74.9947L92.669 38.9373C92.536 38.7602 92.3586 38.6265 92.1815 38.4939Z" fill="url(#paint1_linear_596_18954)"/>
</g>
<mask id="mask1_596_18954" style="mask-type:luminance" maskUnits="userSpaceOnUse" x="51" y="27" width="43" height="49">
<path d="M73.4881 27.7301C73.1439 27.5342 72.7547 27.4312 72.3586 27.4312C71.9626 27.4312 71.5733 27.5342 71.2291 27.7301L52.5803 38.4935C51.8713 38.8921 51.4727 39.6452 51.4727 40.4425V62.0153C51.4727 62.8125 51.9157 63.5656 52.5803 63.9642L71.2291 74.7284C71.5733 74.9243 71.9626 75.0273 72.3586 75.0273C72.7547 75.0273 73.1439 74.9243 73.4881 74.7284L92.1373 63.9642C92.846 63.5656 93.245 62.8125 93.245 62.0153V40.4428C93.245 39.6456 92.8016 38.8925 92.1373 38.4939L73.4881 27.7301Z" fill="white"/>
</mask>
<g mask="url(#mask1_596_18954)">
<path fill-rule="evenodd" clip-rule="evenodd" d="M92.226 63.9645C92.7576 63.6544 93.1562 63.1228 93.3337 62.5471L72.7792 27.464C72.2476 27.3755 71.6716 27.4196 71.1848 27.7296L52.5801 38.4497L72.6462 75.0387C72.9381 74.9909 73.2215 74.9015 73.4879 74.7731L92.226 63.9645Z" fill="url(#paint2_linear_596_18954)"/>
<path fill-rule="evenodd" clip-rule="evenodd" d="M92.2261 63.9645L73.5328 74.7287C73.2689 74.8632 72.9845 74.953 72.6912 74.9943L73.0457 75.6589L93.7764 63.6548V63.3888L93.2448 62.5027C93.1563 63.1228 92.7577 63.6544 92.2261 63.9645Z" fill="url(#paint3_linear_596_18954)"/>
<path fill-rule="evenodd" clip-rule="evenodd" d="M92.2261 63.9645L73.5328 74.7287C73.2689 74.8632 72.9845 74.953 72.6912 74.9943L73.0457 75.6589L93.7764 63.6548V63.3888L93.2448 62.5027C93.1563 63.1228 92.7577 63.6544 92.2261 63.9645Z" fill="url(#paint4_linear_596_18954)"/>
</g>
<defs>
<linearGradient id="paint0_linear_596_18954" x1="2899.85" y1="859.745" x2="855.753" y2="4071.62" gradientUnits="userSpaceOnUse">
<stop stop-color="#41873F"/>
<stop offset="0.3288" stop-color="#418B3D"/>
<stop offset="0.6352" stop-color="#419637"/>
<stop offset="0.9319" stop-color="#3FA92D"/>
<stop offset="1" stop-color="#3FAE2A"/>
</linearGradient>
<linearGradient id="paint1_linear_596_18954" x1="1817.47" y1="2652.27" x2="6936.8" y2="-129.088" gradientUnits="userSpaceOnUse">
<stop offset="0.1376" stop-color="#41873F"/>
<stop offset="0.4032" stop-color="#54A044"/>
<stop offset="0.7136" stop-color="#66B848"/>
<stop offset="0.9081" stop-color="#6CC04A"/>
</linearGradient>
<linearGradient id="paint2_linear_596_18954" x1="-126.288" y1="2408.03" x2="4189.03" y2="2408.03" gradientUnits="userSpaceOnUse">
<stop offset="0.09192" stop-color="#6CC04A"/>
<stop offset="0.2864" stop-color="#66B848"/>
<stop offset="0.5968" stop-color="#54A044"/>
<stop offset="0.8624" stop-color="#41873F"/>
</linearGradient>
<linearGradient id="paint3_linear_596_18954" x1="-2117.25" y1="723.929" x2="2198.02" y2="723.929" gradientUnits="userSpaceOnUse">
<stop offset="0.09192" stop-color="#6CC04A"/>
<stop offset="0.2864" stop-color="#66B848"/>
<stop offset="0.5968" stop-color="#54A044"/>
<stop offset="0.8624" stop-color="#41873F"/>
</linearGradient>
<linearGradient id="paint4_linear_596_18954" x1="2826.7" y1="-2714.36" x2="1733.48" y2="3014.12" gradientUnits="userSpaceOnUse">
<stop stop-color="#41873F"/>
<stop offset="0.3288" stop-color="#418B3D"/>
<stop offset="0.6352" stop-color="#419637"/>
<stop offset="0.9319" stop-color="#3FA92D"/>
<stop offset="1" stop-color="#3FAE2A"/>
</linearGradient>
</defs>
</svg>
