<svg width="265" height="174" viewBox="0 0 265 174" fill="none" xmlns="http://www.w3.org/2000/svg">
<rect width="265" height="174" fill="url(#paint0_linear_670_731)"/>
<path d="M50.5918 91.5267L51.4535 94.7467C52.4602 98.505 52.9652 100.385 54.1068 101.603C55.0079 102.565 56.1736 103.237 57.4568 103.537C59.0835 103.917 60.9635 103.413 64.7235 102.407C68.4802 101.4 70.3602 100.897 71.5785 99.755C71.6785 99.66 71.7785 99.5617 71.8718 99.4617C71.3042 99.4101 70.74 99.3267 70.1818 99.2117C69.0218 98.9817 67.6435 98.6117 66.0135 98.175L65.8352 98.1267L65.7935 98.1167C64.0202 97.64 62.5385 97.2434 61.3552 96.8167C60.1102 96.3667 58.9802 95.8117 58.0185 94.9117C56.6957 93.6724 55.77 92.0687 55.3585 90.3034C55.0585 89.0217 55.1452 87.765 55.3785 86.4634C55.6018 85.215 56.0018 83.7184 56.4818 81.9267L57.3735 78.6034L57.4035 78.4867C54.2035 79.3484 52.5185 79.8584 51.3952 80.91C50.4326 81.8118 49.7592 82.9788 49.4602 84.2634C49.0802 85.8884 49.5835 87.7684 50.5918 91.5267Z" fill="black"/>
<path fill-rule="evenodd" clip-rule="evenodd" d="M80.7165 84.8584L79.8532 88.0784C78.8448 91.8367 78.3415 93.7167 77.1998 94.935C76.299 95.897 75.1332 96.5703 73.8498 96.87C73.6882 96.9084 73.5248 96.9367 73.3582 96.9567C71.8332 97.145 69.9715 96.6467 66.5848 95.74C62.8265 94.7317 60.9465 94.2284 59.7282 93.0867C58.7659 92.1854 58.0926 91.019 57.7932 89.735C57.4132 88.1084 57.9165 86.23 58.9248 82.4717L59.7865 79.2517L60.1932 77.7434C60.9515 74.9667 61.4615 73.4384 62.4398 72.3934C63.3409 71.432 64.5066 70.7593 65.7898 70.46C67.4165 70.08 69.2965 70.5834 73.0565 71.5917C76.8132 72.5984 78.6932 73.1017 79.9115 74.2417C80.874 75.1435 81.5474 76.3105 81.8465 77.595C82.2265 79.2217 81.7232 81.1 80.7165 84.8584ZM64.4182 83.3417C64.4607 83.1831 64.5341 83.0345 64.6341 82.9042C64.7341 82.774 64.8588 82.6647 65.001 82.5827C65.1432 82.5007 65.3002 82.4475 65.463 82.4261C65.6258 82.4048 65.7913 82.4158 65.9498 82.4584L73.9998 84.6167C74.1626 84.6553 74.3159 84.7262 74.4508 84.8251C74.5857 84.924 74.6993 85.049 74.785 85.1927C74.8707 85.3364 74.9266 85.4958 74.9496 85.6614C74.9726 85.8271 74.962 85.9957 74.9186 86.1573C74.8752 86.3188 74.7998 86.47 74.697 86.6019C74.5941 86.7338 74.4657 86.8437 74.3196 86.925C74.1735 87.0064 74.0125 87.0576 73.8462 87.0757C73.6799 87.0937 73.5117 87.0782 73.3515 87.03L65.3015 84.8734C64.9816 84.7874 64.7089 84.578 64.5432 84.2911C64.3776 84.0043 64.3326 83.6617 64.4182 83.3417ZM63.1248 88.1734C63.2108 87.8534 63.4202 87.5807 63.707 87.4151C63.9939 87.2495 64.3348 87.2045 64.6548 87.29L69.4848 88.585C69.6484 88.6228 69.8026 88.6931 69.9384 88.7917C70.0742 88.8903 70.1887 89.0153 70.2752 89.1592C70.3616 89.303 70.4182 89.4628 70.4416 89.629C70.4649 89.7952 70.4546 89.9644 70.4111 90.1265C70.3677 90.2887 70.292 90.4404 70.1887 90.5726C70.0854 90.7049 69.9565 90.815 69.8097 90.8963C69.6629 90.9777 69.5012 91.0286 69.3343 91.0462C69.1674 91.0637 68.9987 91.0474 68.8382 90.9984L64.0082 89.705C63.8496 89.6625 63.7009 89.5891 63.5707 89.4891C63.4405 89.3891 63.3312 89.2644 63.2492 89.1222C63.1672 88.98 63.1139 88.823 63.0926 88.6601C63.0713 88.4973 63.0822 88.3319 63.1248 88.1734Z" fill="black"/>
<path d="M103.637 78.4043H105.219L113.734 84.4785V78.4043H119.232V94H117.133L109.115 88.6387V94H103.637V78.4043ZM130.033 85.3184C129.903 85.2533 129.734 85.2207 129.525 85.2207C129.324 85.2207 129.099 85.2826 128.852 85.4062C128.604 85.5234 128.36 85.6862 128.119 85.8945C127.611 86.3372 127.185 86.8743 126.84 87.5059C126.495 88.1374 126.322 88.7201 126.322 89.2539C126.322 89.7812 126.524 90.1361 126.928 90.3184C127.071 90.3835 127.247 90.416 127.455 90.416C127.663 90.416 127.882 90.3542 128.109 90.2305C128.337 90.1003 128.565 89.9277 128.793 89.7129C129.268 89.2637 129.685 88.7201 130.043 88.082C130.401 87.4375 130.58 86.8613 130.58 86.3535C130.58 85.8457 130.398 85.5007 130.033 85.3184ZM128.139 94.3613C126.277 94.3613 124.672 93.7721 123.324 92.5938C121.885 91.3438 121.166 89.7715 121.166 87.877C121.166 85.9759 121.84 84.4232 123.188 83.2188C124.535 82.0078 126.199 81.4023 128.178 81.4023C130.157 81.4023 131.82 81.9948 133.168 83.1797C134.516 84.3581 135.193 85.9368 135.199 87.916C135.206 89.1855 134.883 90.3086 134.232 91.2852C133.581 92.2617 132.712 93.0169 131.625 93.5508C130.538 94.0846 129.376 94.3548 128.139 94.3613ZM146.312 93.1211C145.076 93.9609 143.764 94.3809 142.377 94.3809C140.997 94.3809 139.874 93.9902 139.008 93.209C138.142 92.4212 137.709 91.3633 137.709 90.0352V84.957H136.596V81.8613H137.709V78.5801L143.549 77.9844V81.8613H146.312V84.957H143.549V88.0234C143.549 88.9414 143.754 89.6087 144.164 90.0254C144.581 90.4355 145.297 90.6406 146.312 90.6406V93.1211ZM156.049 85.3379C156.049 84.765 155.782 84.4785 155.248 84.4785C154.636 84.5371 154.239 84.8529 154.057 85.4258C153.965 85.6992 153.9 86.0182 153.861 86.3828C153.829 86.7409 153.777 87.125 153.705 87.5352L155.844 87.0566L156.029 85.5625L156.049 85.3379ZM154.73 89.7812C154.73 89.7812 154.551 89.7812 154.193 89.7812C154.024 89.7812 153.861 89.7747 153.705 89.7617C153.705 90.5365 154.118 90.9596 154.945 91.0312C155.173 91.0508 155.395 91.0605 155.609 91.0605C156.163 91.0605 156.856 90.9336 157.689 90.6797C158.529 90.4258 159.281 90.0124 159.945 89.4395L160.551 92.4766C159.099 93.7331 156.905 94.3613 153.969 94.3613C152.283 94.3613 150.834 93.8698 149.623 92.8867C148.308 91.8125 147.65 90.3249 147.65 88.4238C147.65 86.9915 148.021 85.7057 148.764 84.5664C149.454 83.5247 150.388 82.7337 151.566 82.1934C152.745 81.653 154.018 81.3828 155.385 81.3828C157.156 81.3828 158.493 81.7702 159.398 82.5449C160.31 83.3197 160.762 84.2767 160.756 85.416C160.756 86.5553 160.212 87.5677 159.125 88.4531C158.038 89.3385 156.573 89.7812 154.73 89.7812ZM166.957 94L174.711 79.1953C174.978 78.668 175.469 78.3164 176.186 78.1406C176.394 78.0885 176.651 78.0625 176.957 78.0625C177.263 78.0625 177.595 78.1504 177.953 78.3262C178.318 78.4954 178.604 78.7656 178.812 79.1367L187.133 94H179.213L178.598 92.457H174.379L173.852 94H166.957ZM174.857 89.3613H178.012L176.518 85.1426L174.857 89.3613ZM202.738 86.3047C202.732 88.1667 202.117 89.8268 200.893 91.2852C199.981 92.3724 198.741 93.1471 197.172 93.6094C196.358 93.8503 195.434 93.9805 194.398 94V97.1641H188.598V81.8613H191.801L193.158 83.7363C194.617 82.1803 196.15 81.4023 197.758 81.4023C199.366 81.4023 200.596 81.8646 201.449 82.7891C202.309 83.7135 202.738 84.8854 202.738 86.3047ZM197.318 85.5137C197.182 85.4616 197.012 85.4355 196.811 85.4355C196.4 85.4355 195.958 85.6732 195.482 86.1484C195.014 86.6172 194.652 87.1543 194.398 87.7598V90.5625C194.509 90.4844 194.672 90.3802 194.887 90.25C195.108 90.1133 195.349 89.9505 195.609 89.7617C197.146 88.668 197.914 87.5547 197.914 86.4219C197.914 85.9661 197.715 85.6634 197.318 85.5137ZM218.812 86.3047C218.806 88.1667 218.191 89.8268 216.967 91.2852C216.055 92.3724 214.815 93.1471 213.246 93.6094C212.432 93.8503 211.508 93.9805 210.473 94V97.1641H204.672V81.8613H207.875L209.232 83.7363C210.691 82.1803 212.224 81.4023 213.832 81.4023C215.44 81.4023 216.671 81.8646 217.523 82.7891C218.383 83.7135 218.812 84.8854 218.812 86.3047ZM213.393 85.5137C213.256 85.4616 213.087 85.4355 212.885 85.4355C212.475 85.4355 212.032 85.6732 211.557 86.1484C211.088 86.6172 210.727 87.1543 210.473 87.7598V90.5625C210.583 90.4844 210.746 90.3802 210.961 90.25C211.182 90.1133 211.423 89.9505 211.684 89.7617C213.22 88.668 213.988 87.5547 213.988 86.4219C213.988 85.9661 213.79 85.6634 213.393 85.5137Z" fill="black"/>
<defs>
<linearGradient id="paint0_linear_670_731" x1="132.5" y1="0" x2="132.5" y2="174" gradientUnits="userSpaceOnUse">
<stop stop-color="#D4E6EA"/>
<stop offset="1" stop-color="#7D7784"/>
</linearGradient>
</defs>
</svg>
