<svg width="265" height="174" viewBox="0 0 265 174" fill="none" xmlns="http://www.w3.org/2000/svg">
<rect width="265" height="174" fill="url(#paint0_linear_673_739)"/>
<path d="M85.1881 78.6242C85.1545 78.8398 85.1155 79.0601 85.0717 79.2867C83.5741 86.943 78.4499 89.5836 71.9045 89.5836H68.5725C68.187 89.5826 67.8139 89.7196 67.5206 89.9698C67.2273 90.22 67.0332 90.5668 66.9733 90.9476L65.267 101.716L64.7842 104.769C64.7669 104.879 64.7715 104.992 64.7977 105.1C64.824 105.209 64.8714 105.311 64.9372 105.401C65.003 105.491 65.086 105.567 65.1813 105.625C65.2767 105.683 65.3825 105.722 65.4928 105.739C65.5368 105.746 65.5812 105.749 65.6256 105.749H71.5358C71.8738 105.75 72.2011 105.631 72.4589 105.412C72.7166 105.193 72.8879 104.89 72.942 104.556L72.9999 104.257L74.1124 97.2258L74.1834 96.8398C74.2367 96.5056 74.4078 96.2015 74.6656 95.9823C74.9235 95.7631 75.2513 95.6433 75.5897 95.6445H76.4733C82.1999 95.6445 86.6819 93.3305 87.992 86.6351C88.5389 83.8383 88.2561 81.5031 86.8077 79.8601C86.3472 79.3534 85.7985 78.9346 85.1881 78.6242Z" fill="black"/>
<path d="M82.1186 70.9914C80.4248 69.0719 77.3678 68.25 73.4553 68.25H62.0975C61.7112 68.2491 61.3372 68.3862 61.043 68.6365C60.7488 68.8869 60.5537 69.2341 60.4928 69.6156L55.7623 99.4594C55.7424 99.5857 55.7477 99.7146 55.7777 99.8389C55.8078 99.9631 55.8621 100.08 55.9375 100.183C56.0129 100.287 56.108 100.374 56.2172 100.44C56.3264 100.507 56.4477 100.551 56.574 100.57C56.6242 100.578 56.6749 100.582 56.7256 100.582H63.7381L65.499 89.4656L65.4443 89.8141C65.5042 89.4332 65.6983 89.0864 65.9916 88.8362C66.2849 88.5861 66.6581 88.4491 67.0436 88.45H70.3756C76.9201 88.45 82.0443 85.8047 83.5428 78.1531C83.5873 77.9266 83.6248 77.7063 83.6592 77.4906C84.1045 74.6609 83.6553 72.7352 82.1186 70.9914Z" fill="black"/>
<path d="M109.389 78.4434C112.618 78.1243 115.059 77.9648 116.713 77.9648C118.367 77.9648 119.675 78.0853 120.639 78.3262C121.609 78.5671 122.406 78.9414 123.031 79.4492C124.242 80.4388 124.848 82.0632 124.848 84.3223C124.848 85.3379 124.656 86.2689 124.271 87.1152C123.887 87.9616 123.363 88.6875 122.699 89.293C122.035 89.8984 121.257 90.3704 120.365 90.709C119.473 91.0475 118.52 91.2168 117.504 91.2168L115.766 91.1777V94H109.389V78.4434ZM118.188 82.0176C117.628 82.0176 116.807 82.4049 115.727 83.1797V86.8613L116.869 86.3047C117.624 85.9336 118.152 85.5788 118.451 85.2402C119.011 84.6087 119.291 83.9805 119.291 83.3555C119.291 82.7305 119.079 82.3171 118.656 82.1152C118.52 82.0501 118.363 82.0176 118.188 82.0176ZM135.16 86.4414C134.561 86.4414 133.946 86.6595 133.314 87.0957C132.683 87.5319 132.364 87.9453 132.357 88.3359V94H126.479V81.8613H132.357V83.1602C132.689 82.6589 133.1 82.2585 133.588 81.959C134.083 81.6595 134.607 81.4805 135.16 81.4219V86.4414ZM144.828 85.3379C144.828 84.765 144.561 84.4785 144.027 84.4785C143.415 84.5371 143.018 84.8529 142.836 85.4258C142.745 85.6992 142.68 86.0182 142.641 86.3828C142.608 86.7409 142.556 87.125 142.484 87.5352L144.623 87.0566L144.809 85.5625L144.828 85.3379ZM143.51 89.7812C143.51 89.7812 143.331 89.7812 142.973 89.7812C142.803 89.7812 142.641 89.7747 142.484 89.7617C142.484 90.5365 142.898 90.9596 143.725 91.0312C143.952 91.0508 144.174 91.0605 144.389 91.0605C144.942 91.0605 145.635 90.9336 146.469 90.6797C147.309 90.4258 148.061 90.0124 148.725 89.4395L149.33 92.4766C147.878 93.7331 145.684 94.3613 142.748 94.3613C141.062 94.3613 139.613 93.8698 138.402 92.8867C137.087 91.8125 136.43 90.3249 136.43 88.4238C136.43 86.9915 136.801 85.7057 137.543 84.5664C138.233 83.5247 139.167 82.7337 140.346 82.1934C141.524 81.653 142.797 81.3828 144.164 81.3828C145.935 81.3828 147.273 81.7702 148.178 82.5449C149.089 83.3197 149.542 84.2767 149.535 85.416C149.535 86.5553 148.992 87.5677 147.904 88.4531C146.817 89.3385 145.352 89.7812 143.51 89.7812ZM158.168 90.2988C158.826 90.2988 159.776 89.8333 161.02 88.9023V93.6777C158.884 94.485 156.915 94.599 155.111 94.0195C153.308 93.4401 152.029 92.4049 151.273 90.9141C150.896 90.1589 150.707 89.2734 150.707 88.2578C150.707 86.2135 151.41 84.5566 152.816 83.2871C154.223 82.0176 156.052 81.3828 158.305 81.3828C159.236 81.3828 160.076 81.5228 160.824 81.8027V85.5625C160.648 85.4128 160.401 85.3379 160.082 85.3379C159.763 85.3379 159.421 85.4388 159.057 85.6406C158.692 85.8424 158.36 86.1126 158.061 86.4512C157.37 87.2324 157.025 88.0365 157.025 88.8633C157.032 89.6836 157.283 90.1458 157.777 90.25C157.908 90.276 158.038 90.2923 158.168 90.2988ZM166.322 76.2363C167.279 76.2363 167.989 76.4382 168.451 76.8418C168.913 77.2389 169.141 77.7467 169.135 78.3652C169.135 78.9837 168.839 79.5534 168.246 80.0742C167.66 80.5951 166.876 80.8555 165.893 80.8555C164.512 80.8555 163.653 80.4388 163.314 79.6055C163.217 79.3711 163.168 79.1107 163.168 78.8242C163.168 78.5378 163.236 78.2383 163.373 77.9258C163.51 77.6133 163.715 77.3333 163.988 77.0859C164.594 76.5195 165.372 76.2363 166.322 76.2363ZM168.969 94H163.314V81.8613H168.969V94ZM179.75 85.3184C179.62 85.2533 179.451 85.2207 179.242 85.2207C179.04 85.2207 178.816 85.2826 178.568 85.4062C178.321 85.5234 178.077 85.6862 177.836 85.8945C177.328 86.3372 176.902 86.8743 176.557 87.5059C176.212 88.1374 176.039 88.7201 176.039 89.2539C176.039 89.7812 176.241 90.1361 176.645 90.3184C176.788 90.3835 176.964 90.416 177.172 90.416C177.38 90.416 177.598 90.3542 177.826 90.2305C178.054 90.1003 178.282 89.9277 178.51 89.7129C178.985 89.2637 179.402 88.7201 179.76 88.082C180.118 87.4375 180.297 86.8613 180.297 86.3535C180.297 85.8457 180.115 85.5007 179.75 85.3184ZM177.855 94.3613C175.993 94.3613 174.389 93.7721 173.041 92.5938C171.602 91.3438 170.883 89.7715 170.883 87.877C170.883 85.9759 171.557 84.4232 172.904 83.2188C174.252 82.0078 175.915 81.4023 177.895 81.4023C179.874 81.4023 181.537 81.9948 182.885 83.1797C184.232 84.3581 184.91 85.9368 184.916 87.916C184.923 89.1855 184.6 90.3086 183.949 91.2852C183.298 92.2617 182.429 93.0169 181.342 93.5508C180.255 94.0846 179.092 94.3548 177.855 94.3613ZM192.611 87.5156C192.611 89.651 193.129 90.7188 194.164 90.7188C194.685 90.7188 194.988 90.4648 195.072 89.957C195.098 89.8008 195.111 89.6283 195.111 89.4395V81.8613H200.912V94H197.709L196.312 92.0957C195.486 93.222 194.291 93.9544 192.729 94.293C190.814 94.7031 189.271 94.3776 188.1 93.3164C187.214 92.5156 186.771 91.4577 186.771 90.1426V81.8613H192.611V87.5156ZM212.23 85.5039C210.785 85.1654 209.734 84.9961 209.076 84.9961C208.887 84.9961 208.741 85.0384 208.637 85.123C208.539 85.2077 208.49 85.3021 208.49 85.4062C208.49 85.6211 208.757 85.8392 209.291 86.0605C209.831 86.2754 210.326 86.487 210.775 86.6953C211.225 86.9036 211.612 87.1576 211.938 87.457C212.641 88.1081 212.992 89.0781 212.992 90.3672C212.992 91.6497 212.527 92.6361 211.596 93.3262C210.665 94.0163 209.405 94.3613 207.816 94.3613C206.228 94.3613 204.958 94.2148 204.008 93.9219C203.591 93.7982 203.272 93.6517 203.051 93.4824V89.8594C203.142 89.8659 203.301 89.9082 203.529 89.9863C203.757 90.0645 204.135 90.1882 204.662 90.3574C205.189 90.5202 205.668 90.6016 206.098 90.6016C206.534 90.6016 206.752 90.4421 206.752 90.123C206.752 89.8757 206.557 89.6348 206.166 89.4004C205.99 89.2962 205.792 89.1888 205.57 89.0781C204.652 88.6289 203.995 88.1113 203.598 87.5254C203.207 86.9329 203.012 86.2396 203.012 85.4453C203.012 84.0326 203.585 82.9779 204.73 82.2812C205.694 81.6953 206.954 81.4023 208.51 81.4023C209.597 81.4023 210.688 81.5098 211.781 81.7246C212.016 81.7702 212.165 81.8027 212.23 81.8223V85.5039Z" fill="black"/>
<defs>
<linearGradient id="paint0_linear_673_739" x1="132.5" y1="0" x2="132.5" y2="174" gradientUnits="userSpaceOnUse">
<stop stop-color="#B5E3C7"/>
<stop offset="1" stop-color="#647D6E"/>
</linearGradient>
</defs>
</svg>
