<svg width="265" height="174" viewBox="0 0 265 174" fill="none" xmlns="http://www.w3.org/2000/svg">
<rect width="265" height="174" fill="url(#paint0_linear_673_738)"/>
<path d="M72.8748 83.25C72.8747 82.3501 72.6588 81.4634 72.2451 80.6642C71.8314 79.8651 71.232 79.1769 70.4973 78.6573C69.7625 78.1378 68.9139 77.8021 68.0225 77.6785C67.1312 77.5549 66.2232 77.6469 65.3748 77.9469V75.75C65.3738 74.6646 65.0588 73.6026 64.4677 72.6922C63.8767 71.7818 63.0349 71.0619 62.0438 70.6192C61.0528 70.1765 59.9548 70.03 58.8823 70.1974C57.8099 70.3648 56.8088 70.8389 55.9998 71.5625C55.069 70.7312 53.8882 70.2329 52.6432 70.1463C51.3982 70.0597 50.1598 70.3895 49.1228 71.0839C48.0858 71.7783 47.3093 72.7979 46.9153 73.982C46.5213 75.1662 46.5323 76.4478 46.9466 77.625H44.7498C43.6643 77.626 42.6024 77.941 41.692 78.532C40.7816 79.1231 40.0616 79.9649 39.6189 80.9559C39.1763 81.947 39.0298 83.045 39.1972 84.1174C39.3645 85.1899 39.8386 86.191 40.5623 87C39.7309 87.9308 39.2327 89.1116 39.1461 90.3566C39.0594 91.6016 39.3893 92.84 40.0837 93.877C40.7781 94.9139 41.7976 95.6905 42.9818 96.0845C44.166 96.4784 45.4475 96.4674 46.6248 96.0531V98.25C46.6257 99.3354 46.9408 100.397 47.5318 101.308C48.1228 102.218 48.9646 102.938 49.9557 103.381C50.9468 103.823 52.0447 103.97 53.1172 103.803C54.1896 103.635 55.1907 103.161 55.9998 102.438C56.9305 103.269 58.1114 103.767 59.3563 103.854C60.6013 103.94 61.8398 103.611 62.8767 102.916C63.9137 102.222 64.6903 101.202 65.0842 100.018C65.4782 98.8338 65.4672 97.5522 65.0529 96.375H67.2498C68.3352 96.374 69.3972 96.059 70.3076 95.468C71.218 94.8769 71.9379 94.0351 72.3806 93.0441C72.8233 92.053 72.9697 90.955 72.8024 89.8826C72.635 88.8101 72.1609 87.809 71.4373 87C72.3638 85.9709 72.876 84.6348 72.8748 83.25ZM67.2498 81.375C67.747 81.375 68.224 81.5725 68.5756 81.9242C68.9272 82.2758 69.1248 82.7527 69.1248 83.25C69.1248 83.7473 68.9272 84.2242 68.5756 84.5758C68.224 84.9275 67.747 85.125 67.2498 85.125H65.3748V83.25C65.3748 82.7527 65.5723 82.2758 65.9239 81.9242C66.2756 81.5725 66.7525 81.375 67.2498 81.375ZM59.7498 73.875C60.247 73.875 60.724 74.0725 61.0756 74.4242C61.4272 74.7758 61.6248 75.2527 61.6248 75.75V83.25C61.6248 83.7473 61.4272 84.2242 61.0756 84.5758C60.724 84.9275 60.247 85.125 59.7498 85.125H57.8748V75.75C57.8748 75.2527 58.0723 74.7758 58.4239 74.4242C58.7756 74.0725 59.2525 73.875 59.7498 73.875ZM50.3748 75.75C50.3748 75.2527 50.5723 74.7758 50.9239 74.4242C51.2756 74.0725 51.7525 73.875 52.2498 73.875C52.747 73.875 53.224 74.0725 53.5756 74.4242C53.9272 74.7758 54.1248 75.2527 54.1248 75.75V77.625H52.2498C51.7525 77.625 51.2756 77.4275 50.9239 77.0758C50.5723 76.7242 50.3748 76.2473 50.3748 75.75ZM44.7498 81.375H52.2498C52.747 81.375 53.224 81.5725 53.5756 81.9242C53.9272 82.2758 54.1248 82.7527 54.1248 83.25V85.125H44.7498C44.2525 85.125 43.7756 84.9275 43.4239 84.5758C43.0723 84.2242 42.8748 83.7473 42.8748 83.25C42.8748 82.7527 43.0723 82.2758 43.4239 81.9242C43.7756 81.5725 44.2525 81.375 44.7498 81.375ZM44.7498 92.625C44.2525 92.625 43.7756 92.4275 43.4239 92.0758C43.0723 91.7242 42.8748 91.2473 42.8748 90.75C42.8748 90.2527 43.0723 89.7758 43.4239 89.4242C43.7756 89.0725 44.2525 88.875 44.7498 88.875H46.6248V90.75C46.6248 91.2473 46.4272 91.7242 46.0756 92.0758C45.724 92.4275 45.247 92.625 44.7498 92.625ZM52.2498 100.125C51.7525 100.125 51.2756 99.9275 50.9239 99.5758C50.5723 99.2242 50.3748 98.7473 50.3748 98.25V90.75C50.3748 90.2527 50.5723 89.7758 50.9239 89.4242C51.2756 89.0725 51.7525 88.875 52.2498 88.875H54.1248V98.25C54.1248 98.7473 53.9272 99.2242 53.5756 99.5758C53.224 99.9275 52.747 100.125 52.2498 100.125ZM61.6248 98.25C61.6248 98.7473 61.4272 99.2242 61.0756 99.5758C60.724 99.9275 60.247 100.125 59.7498 100.125C59.2525 100.125 58.7756 99.9275 58.4239 99.5758C58.0723 99.2242 57.8748 98.7473 57.8748 98.25V96.375H59.7498C60.247 96.375 60.724 96.5725 61.0756 96.9242C61.4272 97.2758 61.6248 97.7527 61.6248 98.25ZM67.2498 92.625H59.7498C59.2525 92.625 58.7756 92.4275 58.4239 92.0758C58.0723 91.7242 57.8748 91.2473 57.8748 90.75V88.875H67.2498C67.747 88.875 68.224 89.0725 68.5756 89.4242C68.9272 89.7758 69.1248 90.2527 69.1248 90.75C69.1248 91.2473 68.9272 91.7242 68.5756 92.0758C68.224 92.4275 67.747 92.625 67.2498 92.625Z" fill="black"/>
<path d="M103.4 83.3359C103.4 82.418 103.059 81.959 102.375 81.959C102.082 81.959 101.675 82.0664 101.154 82.2812L99.8555 82.8184V86.6367C102.219 85.7578 103.4 84.6576 103.4 83.3359ZM109.201 83.502C109.201 85.5853 108.173 87.2389 106.115 88.4629L110.354 94H102.639L99.8945 89.4785V94H93.5176V78.4043C97.6452 78.1113 100.35 77.9648 101.633 77.9648C102.915 77.9648 103.892 78.043 104.562 78.1992C106.411 78.6224 107.733 79.5273 108.527 80.9141C108.97 81.7083 109.195 82.571 109.201 83.502ZM112.697 92.9258C112.176 92.4375 111.76 91.8255 111.447 91.0898C111.141 90.3477 110.988 89.5501 110.988 88.6973C110.988 87.8444 111.073 87.1055 111.242 86.4805C111.581 85.237 112.173 84.1921 113.02 83.3457C113.423 82.929 113.872 82.5775 114.367 82.291C115.383 81.6986 116.454 81.4023 117.58 81.4023C118.713 81.4023 119.706 81.7767 120.559 82.5254C120.832 82.7663 121.07 83.043 121.271 83.3555L122.668 81.8613H125.871V94H122.668L121.271 91.9785C120.204 93.554 118.586 94.3451 116.418 94.3516C115.819 94.3581 115.178 94.2409 114.494 94C113.817 93.7656 113.218 93.4076 112.697 92.9258ZM120.607 85.543C120.373 85.4062 120.093 85.3379 119.768 85.3379C119.442 85.3379 119.097 85.4551 118.732 85.6895C118.374 85.9173 118.052 86.207 117.766 86.5586C117.128 87.3464 116.809 88.1471 116.809 88.9609C116.809 89.5339 116.984 89.9375 117.336 90.1719C117.661 90.3867 118.156 90.3574 118.82 90.084C119.491 89.804 120.087 89.4427 120.607 89V85.543ZM128.986 93.7363C129.676 93.9251 130.542 94.0195 131.584 94.0195C132.242 94.0195 132.681 93.7396 132.902 93.1797C132.967 93.0104 133 92.8346 133 92.6523C133 92.4701 132.967 92.278 132.902 92.0762L127.883 81.8613H133.703L135.803 86.5586L137.766 81.8613H142.883L138.322 93.1992C137.717 94.6771 137.049 95.7676 136.32 96.4707C135.428 97.3301 134.328 97.7598 133.02 97.7598C131.229 97.7598 129.885 97.5742 128.986 97.2031V93.7363ZM150.92 85.1621C150.399 85.1621 150.139 85.582 150.139 86.4219V94H144.338V81.8613H147.541L148.938 83.7559C149.458 83.0332 150.178 82.4603 151.096 82.0371C152.02 81.6139 152.883 81.4023 153.684 81.4023C155.155 81.4023 156.32 81.793 157.18 82.5742C158.046 83.3555 158.479 84.4036 158.479 85.7188V94H152.639V88.1406C152.639 86.1549 152.066 85.1621 150.92 85.1621ZM178.078 83.4824C177.655 83.3197 177.202 83.2383 176.721 83.2383C175.731 83.2383 174.868 83.5996 174.133 84.3223C173.404 85.0384 173.039 85.8978 173.039 86.9004C173.039 87.571 173.169 88.0951 173.43 88.4727C173.69 88.8503 174.045 89.0391 174.494 89.0391C174.943 89.0391 175.438 88.9251 175.979 88.6973C176.525 88.4629 177.326 87.9583 178.381 87.1836V93.541C176.994 94.1009 175.52 94.3809 173.957 94.3809C172.401 94.3809 170.965 94.0814 169.65 93.4824C167.561 92.5254 166.184 91.028 165.52 88.9902C165.298 88.2936 165.184 87.5254 165.178 86.6855C165.178 85.8457 165.282 85.0417 165.49 84.2734C165.699 83.5052 166.001 82.7956 166.398 82.1445C167.193 80.8359 168.306 79.8105 169.738 79.0684C171.177 78.3262 172.824 77.9583 174.68 77.9648C176.092 77.9648 177.225 78.1243 178.078 78.4434V83.4824ZM189.348 86.4414C188.749 86.4414 188.133 86.6595 187.502 87.0957C186.87 87.5319 186.551 87.9453 186.545 88.3359V94H180.666V81.8613H186.545V83.1602C186.877 82.6589 187.287 82.2585 187.775 81.959C188.27 81.6595 188.794 81.4805 189.348 81.4219V86.4414ZM192.424 92.9258C191.903 92.4375 191.486 91.8255 191.174 91.0898C190.868 90.3477 190.715 89.5501 190.715 88.6973C190.715 87.8444 190.799 87.1055 190.969 86.4805C191.307 85.237 191.9 84.1921 192.746 83.3457C193.15 82.929 193.599 82.5775 194.094 82.291C195.109 81.6986 196.18 81.4023 197.307 81.4023C198.439 81.4023 199.432 81.7767 200.285 82.5254C200.559 82.7663 200.796 83.043 200.998 83.3555L202.395 81.8613H205.598V94H202.395L200.998 91.9785C199.93 93.554 198.312 94.3451 196.145 94.3516C195.546 94.3581 194.904 94.2409 194.221 94C193.544 93.7656 192.945 93.4076 192.424 92.9258ZM200.334 85.543C200.1 85.4062 199.82 85.3379 199.494 85.3379C199.169 85.3379 198.824 85.4551 198.459 85.6895C198.101 85.9173 197.779 86.207 197.492 86.5586C196.854 87.3464 196.535 88.1471 196.535 88.9609C196.535 89.5339 196.711 89.9375 197.062 90.1719C197.388 90.3867 197.883 90.3574 198.547 90.084C199.217 89.804 199.813 89.4427 200.334 89V85.543ZM217.111 80.2012C216.792 80.11 216.477 80.0645 216.164 80.0645C215.598 80.0645 215.165 80.2272 214.865 80.5527C214.572 80.8717 214.406 81.3079 214.367 81.8613H217.131V84.957H214.367V94H208.527V84.957H207.414V81.8613H208.527V79.8008C208.527 78.7201 208.957 77.8639 209.816 77.2324C210.676 76.6009 211.822 76.2852 213.254 76.2852C214.686 76.2786 215.972 76.6107 217.111 77.2812V80.2012ZM228.068 93.1211C226.831 93.9609 225.52 94.3809 224.133 94.3809C222.753 94.3809 221.63 93.9902 220.764 93.209C219.898 92.4212 219.465 91.3633 219.465 90.0352V84.957H218.352V81.8613H219.465V78.5801L225.305 77.9844V81.8613H228.068V84.957H225.305V88.0234C225.305 88.9414 225.51 89.6087 225.92 90.0254C226.337 90.4355 227.053 90.6406 228.068 90.6406V93.1211Z" fill="black"/>
<defs>
<linearGradient id="paint0_linear_673_738" x1="104" y1="-9.39002e-07" x2="132.5" y2="174" gradientUnits="userSpaceOnUse">
<stop stop-color="#39291C"/>
<stop offset="1" stop-color="#D7A372"/>
</linearGradient>
</defs>
</svg>
