<svg width="265" height="174" viewBox="0 0 265 174" fill="none" xmlns="http://www.w3.org/2000/svg">
<rect width="265" height="174" fill="url(#paint0_linear_673_738)"/>
<path d="M51.8748 83.25C51.8747 82.3501 51.6588 81.4634 51.2451 80.6642C50.8314 79.8651 50.232 79.1769 49.4973 78.6573C48.7625 78.1378 47.9139 77.8021 47.0225 77.6785C46.1312 77.5549 45.2232 77.6469 44.3748 77.9469V75.75C44.3738 74.6646 44.0588 73.6026 43.4677 72.6922C42.8767 71.7818 42.0349 71.0619 41.0438 70.6192C40.0528 70.1765 38.9548 70.03 37.8823 70.1974C36.8099 70.3648 35.8088 70.8389 34.9998 71.5625C34.069 70.7312 32.8882 70.2329 31.6432 70.1463C30.3982 70.0597 29.1598 70.3895 28.1228 71.0839C27.0858 71.7783 26.3093 72.7979 25.9153 73.982C25.5213 75.1662 25.5323 76.4478 25.9466 77.625H23.7498C22.6643 77.626 21.6024 77.941 20.692 78.532C19.7816 79.1231 19.0616 79.9649 18.6189 80.9559C18.1763 81.947 18.0298 83.045 18.1972 84.1174C18.3645 85.1899 18.8386 86.191 19.5623 87C18.7309 87.9308 18.2327 89.1116 18.1461 90.3566C18.0594 91.6016 18.3893 92.84 19.0837 93.877C19.7781 94.9139 20.7976 95.6905 21.9818 96.0845C23.166 96.4784 24.4475 96.4674 25.6248 96.0531V98.25C25.6257 99.3354 25.9408 100.397 26.5318 101.308C27.1228 102.218 27.9646 102.938 28.9557 103.381C29.9468 103.823 31.0447 103.97 32.1172 103.803C33.1896 103.635 34.1907 103.161 34.9998 102.438C35.9305 103.269 37.1114 103.767 38.3563 103.854C39.6013 103.94 40.8398 103.611 41.8767 102.916C42.9137 102.222 43.6903 101.202 44.0842 100.018C44.4782 98.8338 44.4672 97.5522 44.0529 96.375H46.2498C47.3352 96.374 48.3972 96.059 49.3076 95.468C50.218 94.8769 50.9379 94.0351 51.3806 93.0441C51.8233 92.053 51.9697 90.955 51.8024 89.8826C51.635 88.8101 51.1609 87.809 50.4373 87C51.3638 85.9709 51.876 84.6348 51.8748 83.25ZM46.2498 81.375C46.747 81.375 47.224 81.5725 47.5756 81.9242C47.9272 82.2758 48.1248 82.7527 48.1248 83.25C48.1248 83.7473 47.9272 84.2242 47.5756 84.5758C47.224 84.9275 46.747 85.125 46.2498 85.125H44.3748V83.25C44.3748 82.7527 44.5723 82.2758 44.9239 81.9242C45.2756 81.5725 45.7525 81.375 46.2498 81.375ZM38.7498 73.875C39.247 73.875 39.724 74.0725 40.0756 74.4242C40.4272 74.7758 40.6248 75.2527 40.6248 75.75V83.25C40.6248 83.7473 40.4272 84.2242 40.0756 84.5758C39.724 84.9275 39.247 85.125 38.7498 85.125H36.8748V75.75C36.8748 75.2527 37.0723 74.7758 37.4239 74.4242C37.7756 74.0725 38.2525 73.875 38.7498 73.875ZM29.3748 75.75C29.3748 75.2527 29.5723 74.7758 29.9239 74.4242C30.2756 74.0725 30.7525 73.875 31.2498 73.875C31.747 73.875 32.224 74.0725 32.5756 74.4242C32.9272 74.7758 33.1248 75.2527 33.1248 75.75V77.625H31.2498C30.7525 77.625 30.2756 77.4275 29.9239 77.0758C29.5723 76.7242 29.3748 76.2473 29.3748 75.75ZM23.7498 81.375H31.2498C31.747 81.375 32.224 81.5725 32.5756 81.9242C32.9272 82.2758 33.1248 82.7527 33.1248 83.25V85.125H23.7498C23.2525 85.125 22.7756 84.9275 22.4239 84.5758C22.0723 84.2242 21.8748 83.7473 21.8748 83.25C21.8748 82.7527 22.0723 82.2758 22.4239 81.9242C22.7756 81.5725 23.2525 81.375 23.7498 81.375ZM23.7498 92.625C23.2525 92.625 22.7756 92.4275 22.4239 92.0758C22.0723 91.7242 21.8748 91.2473 21.8748 90.75C21.8748 90.2527 22.0723 89.7758 22.4239 89.4242C22.7756 89.0725 23.2525 88.875 23.7498 88.875H25.6248V90.75C25.6248 91.2473 25.4272 91.7242 25.0756 92.0758C24.724 92.4275 24.247 92.625 23.7498 92.625ZM31.2498 100.125C30.7525 100.125 30.2756 99.9275 29.9239 99.5758C29.5723 99.2242 29.3748 98.7473 29.3748 98.25V90.75C29.3748 90.2527 29.5723 89.7758 29.9239 89.4242C30.2756 89.0725 30.7525 88.875 31.2498 88.875H33.1248V98.25C33.1248 98.7473 32.9272 99.2242 32.5756 99.5758C32.224 99.9275 31.747 100.125 31.2498 100.125ZM40.6248 98.25C40.6248 98.7473 40.4272 99.2242 40.0756 99.5758C39.724 99.9275 39.247 100.125 38.7498 100.125C38.2525 100.125 37.7756 99.9275 37.4239 99.5758C37.0723 99.2242 36.8748 98.7473 36.8748 98.25V96.375H38.7498C39.247 96.375 39.724 96.5725 40.0756 96.9242C40.4272 97.2758 40.6248 97.7527 40.6248 98.25ZM46.2498 92.625H38.7498C38.2525 92.625 37.7756 92.4275 37.4239 92.0758C37.0723 91.7242 36.8748 91.2473 36.8748 90.75V88.875H46.2498C46.747 88.875 47.224 89.0725 47.5756 89.4242C47.9272 89.7758 48.1248 90.2527 48.1248 90.75C48.1248 91.2473 47.9272 91.7242 47.5756 92.0758C47.224 92.4275 46.747 92.625 46.2498 92.625Z" fill="black"/>
<path d="M82.4004 83.3359C82.4004 82.418 82.0586 81.959 81.375 81.959C81.082 81.959 80.6751 82.0664 80.1543 82.2812L78.8555 82.8184V86.6367C81.2188 85.7578 82.4004 84.6576 82.4004 83.3359ZM88.2012 83.502C88.2012 85.5853 87.1725 87.2389 85.1152 88.4629L89.3535 94H81.6387L78.8945 89.4785V94H72.5176V78.4043C76.6452 78.1113 79.3503 77.9648 80.6328 77.9648C81.9154 77.9648 82.8919 78.043 83.5625 78.1992C85.4115 78.6224 86.7331 79.5273 87.5273 80.9141C87.9701 81.7083 88.1947 82.571 88.2012 83.502ZM91.6973 92.9258C91.1764 92.4375 90.7598 91.8255 90.4473 91.0898C90.1413 90.3477 89.9883 89.5501 89.9883 88.6973C89.9883 87.8444 90.0729 87.1055 90.2422 86.4805C90.5807 85.237 91.1732 84.1921 92.0195 83.3457C92.4232 82.929 92.8724 82.5775 93.3672 82.291C94.3828 81.6986 95.4538 81.4023 96.5801 81.4023C97.7129 81.4023 98.7057 81.7767 99.5586 82.5254C99.832 82.7663 100.07 83.043 100.271 83.3555L101.668 81.8613H104.871V94H101.668L100.271 91.9785C99.2038 93.554 97.5859 94.3451 95.418 94.3516C94.819 94.3581 94.1777 94.2409 93.4941 94C92.8171 93.7656 92.2181 93.4076 91.6973 92.9258ZM99.6074 85.543C99.373 85.4062 99.0931 85.3379 98.7676 85.3379C98.4421 85.3379 98.097 85.4551 97.7324 85.6895C97.3743 85.9173 97.0521 86.207 96.7656 86.5586C96.1276 87.3464 95.8086 88.1471 95.8086 88.9609C95.8086 89.5339 95.9844 89.9375 96.3359 90.1719C96.6615 90.3867 97.1562 90.3574 97.8203 90.084C98.4909 89.804 99.0866 89.4427 99.6074 89V85.543ZM107.986 93.7363C108.676 93.9251 109.542 94.0195 110.584 94.0195C111.242 94.0195 111.681 93.7396 111.902 93.1797C111.967 93.0104 112 92.8346 112 92.6523C112 92.4701 111.967 92.278 111.902 92.0762L106.883 81.8613H112.703L114.803 86.5586L116.766 81.8613H121.883L117.322 93.1992C116.717 94.6771 116.049 95.7676 115.32 96.4707C114.428 97.3301 113.328 97.7598 112.02 97.7598C110.229 97.7598 108.885 97.5742 107.986 97.2031V93.7363ZM129.92 85.1621C129.399 85.1621 129.139 85.582 129.139 86.4219V94H123.338V81.8613H126.541L127.938 83.7559C128.458 83.0332 129.178 82.4603 130.096 82.0371C131.02 81.6139 131.883 81.4023 132.684 81.4023C134.155 81.4023 135.32 81.793 136.18 82.5742C137.046 83.3555 137.479 84.4036 137.479 85.7188V94H131.639V88.1406C131.639 86.1549 131.066 85.1621 129.92 85.1621ZM157.078 83.4824C156.655 83.3197 156.202 83.2383 155.721 83.2383C154.731 83.2383 153.868 83.5996 153.133 84.3223C152.404 85.0384 152.039 85.8978 152.039 86.9004C152.039 87.571 152.169 88.0951 152.43 88.4727C152.69 88.8503 153.045 89.0391 153.494 89.0391C153.943 89.0391 154.438 88.9251 154.979 88.6973C155.525 88.4629 156.326 87.9583 157.381 87.1836V93.541C155.994 94.1009 154.52 94.3809 152.957 94.3809C151.401 94.3809 149.965 94.0814 148.65 93.4824C146.561 92.5254 145.184 91.028 144.52 88.9902C144.298 88.2936 144.184 87.5254 144.178 86.6855C144.178 85.8457 144.282 85.0417 144.49 84.2734C144.699 83.5052 145.001 82.7956 145.398 82.1445C146.193 80.8359 147.306 79.8105 148.738 79.0684C150.177 78.3262 151.824 77.9583 153.68 77.9648C155.092 77.9648 156.225 78.1243 157.078 78.4434V83.4824ZM168.348 86.4414C167.749 86.4414 167.133 86.6595 166.502 87.0957C165.87 87.5319 165.551 87.9453 165.545 88.3359V94H159.666V81.8613H165.545V83.1602C165.877 82.6589 166.287 82.2585 166.775 81.959C167.27 81.6595 167.794 81.4805 168.348 81.4219V86.4414ZM171.424 92.9258C170.903 92.4375 170.486 91.8255 170.174 91.0898C169.868 90.3477 169.715 89.5501 169.715 88.6973C169.715 87.8444 169.799 87.1055 169.969 86.4805C170.307 85.237 170.9 84.1921 171.746 83.3457C172.15 82.929 172.599 82.5775 173.094 82.291C174.109 81.6986 175.18 81.4023 176.307 81.4023C177.439 81.4023 178.432 81.7767 179.285 82.5254C179.559 82.7663 179.796 83.043 179.998 83.3555L181.395 81.8613H184.598V94H181.395L179.998 91.9785C178.93 93.554 177.312 94.3451 175.145 94.3516C174.546 94.3581 173.904 94.2409 173.221 94C172.544 93.7656 171.945 93.4076 171.424 92.9258ZM179.334 85.543C179.1 85.4062 178.82 85.3379 178.494 85.3379C178.169 85.3379 177.824 85.4551 177.459 85.6895C177.101 85.9173 176.779 86.207 176.492 86.5586C175.854 87.3464 175.535 88.1471 175.535 88.9609C175.535 89.5339 175.711 89.9375 176.062 90.1719C176.388 90.3867 176.883 90.3574 177.547 90.084C178.217 89.804 178.813 89.4427 179.334 89V85.543ZM196.111 80.2012C195.792 80.11 195.477 80.0645 195.164 80.0645C194.598 80.0645 194.165 80.2272 193.865 80.5527C193.572 80.8717 193.406 81.3079 193.367 81.8613H196.131V84.957H193.367V94H187.527V84.957H186.414V81.8613H187.527V79.8008C187.527 78.7201 187.957 77.8639 188.816 77.2324C189.676 76.6009 190.822 76.2852 192.254 76.2852C193.686 76.2786 194.972 76.6107 196.111 77.2812V80.2012ZM207.068 93.1211C205.831 93.9609 204.52 94.3809 203.133 94.3809C201.753 94.3809 200.63 93.9902 199.764 93.209C198.898 92.4212 198.465 91.3633 198.465 90.0352V84.957H197.352V81.8613H198.465V78.5801L204.305 77.9844V81.8613H207.068V84.957H204.305V88.0234C204.305 88.9414 204.51 89.6087 204.92 90.0254C205.337 90.4355 206.053 90.6406 207.068 90.6406V93.1211Z" fill="black"/>
<defs>
<linearGradient id="paint0_linear_673_738" x1="104" y1="-9.39002e-07" x2="132.5" y2="174" gradientUnits="userSpaceOnUse">
<stop stop-color="#39291C"/>
<stop offset="1" stop-color="#D7A372"/>
</linearGradient>
</defs>
</svg>
