<svg width="265" height="174" viewBox="0 0 265 174" fill="none" xmlns="http://www.w3.org/2000/svg">
<rect width="265" height="174" fill="url(#paint0_linear_673_738)"/>
<path d="M51.8748 83.25C51.8747 82.3501 51.6588 81.4634 51.2451 80.6642C50.8314 79.8651 50.232 79.1769 49.4973 78.6573C48.7625 78.1378 47.9139 77.8021 47.0225 77.6785C46.1312 77.5549 45.2232 77.6469 44.3748 77.9469V75.75C44.3738 74.6646 44.0588 73.6026 43.4677 72.6922C42.8767 71.7818 42.0349 71.0619 41.0438 70.6192C40.0528 70.1765 38.9548 70.03 37.8823 70.1974C36.8099 70.3648 35.8088 70.8389 34.9998 71.5625C34.069 70.7312 32.8882 70.2329 31.6432 70.1463C30.3982 70.0597 29.1598 70.3895 28.1228 71.0839C27.0858 71.7783 26.3093 72.7979 25.9153 73.982C25.5213 75.1662 25.5323 76.4478 25.9466 77.625H23.7498C22.6643 77.626 21.6024 77.941 20.692 78.532C19.7816 79.1231 19.0616 79.9649 18.6189 80.9559C18.1763 81.947 18.0298 83.045 18.1972 84.1174C18.3645 85.1899 18.8386 86.191 19.5623 87C18.7309 87.9308 18.2327 89.1116 18.1461 90.3566C18.0594 91.6016 18.3893 92.84 19.0837 93.877C19.7781 94.9139 20.7976 95.6905 21.9818 96.0845C23.166 96.4784 24.4475 96.4674 25.6248 96.0531V98.25C25.6257 99.3354 25.9408 100.397 26.5318 101.308C27.1228 102.218 27.9646 102.938 28.9557 103.381C29.9468 103.823 31.0447 103.97 32.1172 103.803C33.1896 103.635 34.1907 103.161 34.9998 102.438C35.9305 103.269 37.1114 103.767 38.3563 103.854C39.6013 103.94 40.8398 103.611 41.8767 102.916C42.9137 102.222 43.6903 101.202 44.0842 100.018C44.4782 98.8338 44.4672 97.5522 44.0529 96.375H46.2498C47.3352 96.374 48.3971 96.059 49.3076 95.468C50.218 94.8769 50.9379 94.0351 51.3806 93.0441C51.8233 92.053 51.9697 90.955 51.8024 89.8826C51.635 88.8101 51.1609 87.809 50.4373 87C51.3638 85.9709 51.876 84.6348 51.8748 83.25ZM46.2498 81.375C46.747 81.375 47.224 81.5725 47.5756 81.9242C47.9272 82.2758 48.1248 82.7527 48.1248 83.25C48.1248 83.7473 47.9272 84.2242 47.5756 84.5758C47.224 84.9275 46.747 85.125 46.2498 85.125H44.3748V83.25C44.3748 82.7527 44.5723 82.2758 44.9239 81.9242C45.2756 81.5725 45.7525 81.375 46.2498 81.375ZM38.7498 73.875C39.247 73.875 39.724 74.0725 40.0756 74.4242C40.4272 74.7758 40.6248 75.2527 40.6248 75.75V83.25C40.6248 83.7473 40.4272 84.2242 40.0756 84.5758C39.724 84.9275 39.247 85.125 38.7498 85.125H36.8748V75.75C36.8748 75.2527 37.0723 74.7758 37.4239 74.4242C37.7756 74.0725 38.2525 73.875 38.7498 73.875ZM29.3748 75.75C29.3748 75.2527 29.5723 74.7758 29.9239 74.4242C30.2756 74.0725 30.7525 73.875 31.2498 73.875C31.747 73.875 32.224 74.0725 32.5756 74.4242C32.9272 74.7758 33.1248 75.2527 33.1248 75.75V77.625H31.2498C30.7525 77.625 30.2756 77.4275 29.9239 77.0758C29.5723 76.7242 29.3748 76.2473 29.3748 75.75ZM23.7498 81.375H31.2498C31.747 81.375 32.224 81.5725 32.5756 81.9242C32.9272 82.2758 33.1248 82.7527 33.1248 83.25V85.125H23.7498C23.2525 85.125 22.7756 84.9275 22.4239 84.5758C22.0723 84.2242 21.8748 83.7473 21.8748 83.25C21.8748 82.7527 22.0723 82.2758 22.4239 81.9242C22.7756 81.5725 23.2525 81.375 23.7498 81.375ZM23.7498 92.625C23.2525 92.625 22.7756 92.4275 22.4239 92.0758C22.0723 91.7242 21.8748 91.2473 21.8748 90.75C21.8748 90.2527 22.0723 89.7758 22.4239 89.4242C22.7756 89.0725 23.2525 88.875 23.7498 88.875H25.6248V90.75C25.6248 91.2473 25.4272 91.7242 25.0756 92.0758C24.724 92.4275 24.247 92.625 23.7498 92.625ZM31.2498 100.125C30.7525 100.125 30.2756 99.9275 29.9239 99.5758C29.5723 99.2242 29.3748 98.7473 29.3748 98.25V90.75C29.3748 90.2527 29.5723 89.7758 29.9239 89.4242C30.2756 89.0725 30.7525 88.875 31.2498 88.875H33.1248V98.25C33.1248 98.7473 32.9272 99.2242 32.5756 99.5758C32.224 99.9275 31.747 100.125 31.2498 100.125ZM40.6248 98.25C40.6248 98.7473 40.4272 99.2242 40.0756 99.5758C39.724 99.9275 39.247 100.125 38.7498 100.125C38.2525 100.125 37.7756 99.9275 37.4239 99.5758C37.0723 99.2242 36.8748 98.7473 36.8748 98.25V96.375H38.7498C39.247 96.375 39.724 96.5726 40.0756 96.9242C40.4272 97.2758 40.6248 97.7527 40.6248 98.25ZM46.2498 92.625H38.7498C38.2525 92.625 37.7756 92.4275 37.4239 92.0758C37.0723 91.7242 36.8748 91.2473 36.8748 90.75V88.875H46.2498C46.747 88.875 47.224 89.0725 47.5756 89.4242C47.9272 89.7758 48.1248 90.2527 48.1248 90.75C48.1248 91.2473 47.9272 91.7242 47.5756 92.0758C47.224 92.4275 46.747 92.625 46.2498 92.625Z" fill="black"/>
<path d="M82.1211 83.3359C82.1211 82.418 81.7793 81.959 81.0957 81.959C80.8027 81.959 80.3958 82.0664 79.875 82.2812L78.5762 82.8184V86.6367C80.9395 85.7578 82.1211 84.6576 82.1211 83.3359ZM87.9219 83.502C87.9219 85.5853 86.8932 87.2389 84.8359 88.4629L89.0742 94H81.3594L78.6152 89.4785V94H72.2383V78.4043C76.3659 78.1113 79.071 77.9648 80.3535 77.9648C81.6361 77.9648 82.6126 78.043 83.2832 78.1992C85.1322 78.6224 86.4538 79.5273 87.248 80.9141C87.6908 81.7083 87.9154 82.571 87.9219 83.502ZM91.418 92.9258C90.8971 92.4375 90.4805 91.8255 90.168 91.0898C89.862 90.3477 89.709 89.5501 89.709 88.6973C89.709 87.8444 89.7936 87.1055 89.9629 86.4805C90.3014 85.237 90.8939 84.1921 91.7402 83.3457C92.1439 82.929 92.5931 82.5775 93.0879 82.291C94.1035 81.6986 95.1745 81.4023 96.3008 81.4023C97.4336 81.4023 98.4264 81.7767 99.2793 82.5254C99.5527 82.7663 99.7904 83.043 99.9922 83.3555L101.389 81.8613H104.592V94H101.389L99.9922 91.9785C98.9245 93.554 97.3066 94.3451 95.1387 94.3516C94.5397 94.3581 93.8984 94.2409 93.2148 94C92.5378 93.7656 91.9388 93.4076 91.418 92.9258ZM99.3281 85.543C99.0938 85.4062 98.8138 85.3379 98.4883 85.3379C98.1628 85.3379 97.8177 85.4551 97.4531 85.6895C97.0951 85.9173 96.7728 86.207 96.4863 86.5586C95.8483 87.3464 95.5293 88.1471 95.5293 88.9609C95.5293 89.5339 95.7051 89.9375 96.0566 90.1719C96.3822 90.3867 96.877 90.3574 97.541 90.084C98.2116 89.804 98.8073 89.4427 99.3281 89V85.543ZM107.707 93.7363C108.397 93.9251 109.263 94.0195 110.305 94.0195C110.962 94.0195 111.402 93.7396 111.623 93.1797C111.688 93.0104 111.721 92.8346 111.721 92.6523C111.721 92.4701 111.688 92.278 111.623 92.0762L106.604 81.8613H112.424L114.523 86.5586L116.486 81.8613H121.604L117.043 93.1992C116.438 94.6771 115.77 95.7676 115.041 96.4707C114.149 97.3301 113.049 97.7598 111.74 97.7598C109.95 97.7598 108.605 97.5742 107.707 97.2031V93.7363ZM129.641 85.1621C129.12 85.1621 128.859 85.582 128.859 86.4219V94H123.059V81.8613H126.262L127.658 83.7559C128.179 83.0332 128.898 82.4603 129.816 82.0371C130.741 81.6139 131.604 81.4023 132.404 81.4023C133.876 81.4023 135.041 81.793 135.9 82.5742C136.766 83.3555 137.199 84.4036 137.199 85.7188V94H131.359V88.1406C131.359 86.1549 130.786 85.1621 129.641 85.1621ZM150.578 94H144.504V78.4043H150.578V94ZM159.523 85.1621C159.003 85.1621 158.742 85.582 158.742 86.4219V94H152.941V81.8613H156.145L157.541 83.7559C158.062 83.0332 158.781 82.4603 159.699 82.0371C160.624 81.6139 161.486 81.4023 162.287 81.4023C163.758 81.4023 164.924 81.793 165.783 82.5742C166.649 83.3555 167.082 84.4036 167.082 85.7188V94H161.242V88.1406C161.242 86.1549 160.669 85.1621 159.523 85.1621ZM178.547 93.1211C177.31 93.9609 175.998 94.3809 174.611 94.3809C173.231 94.3809 172.108 93.9902 171.242 93.209C170.376 92.4212 169.943 91.3633 169.943 90.0352V84.957H168.83V81.8613H169.943V78.5801L175.783 77.9844V81.8613H178.547V84.957H175.783V88.0234C175.783 88.9414 175.988 89.6087 176.398 90.0254C176.815 90.4355 177.531 90.6406 178.547 90.6406V93.1211ZM188.283 85.3379C188.283 84.765 188.016 84.4785 187.482 84.4785C186.87 84.5371 186.473 84.8529 186.291 85.4258C186.2 85.6992 186.135 86.0182 186.096 86.3828C186.063 86.7409 186.011 87.125 185.939 87.5352L188.078 87.0566L188.264 85.5625L188.283 85.3379ZM186.965 89.7812C186.965 89.7812 186.786 89.7812 186.428 89.7812C186.258 89.7812 186.096 89.7747 185.939 89.7617C185.939 90.5365 186.353 90.9596 187.18 91.0312C187.408 91.0508 187.629 91.0605 187.844 91.0605C188.397 91.0605 189.09 90.9336 189.924 90.6797C190.764 90.4258 191.516 90.0124 192.18 89.4395L192.785 92.4766C191.333 93.7331 189.139 94.3613 186.203 94.3613C184.517 94.3613 183.068 93.8698 181.857 92.8867C180.542 91.8125 179.885 90.3249 179.885 88.4238C179.885 86.9915 180.256 85.7057 180.998 84.5664C181.688 83.5247 182.622 82.7337 183.801 82.1934C184.979 81.653 186.252 81.3828 187.619 81.3828C189.39 81.3828 190.728 81.7702 191.633 82.5449C192.544 83.3197 192.997 84.2767 192.99 85.416C192.99 86.5553 192.447 87.5677 191.359 88.4531C190.272 89.3385 188.807 89.7812 186.965 89.7812ZM203.732 86.4414C203.133 86.4414 202.518 86.6595 201.887 87.0957C201.255 87.5319 200.936 87.9453 200.93 88.3359V94H195.051V81.8613H200.93V83.1602C201.262 82.6589 201.672 82.2585 202.16 81.959C202.655 81.6595 203.179 81.4805 203.732 81.4219V86.4414ZM208.469 76.2363C209.426 76.2363 210.135 76.4382 210.598 76.8418C211.06 77.2389 211.288 77.7467 211.281 78.3652C211.281 78.9837 210.985 79.5534 210.393 80.0742C209.807 80.5951 209.022 80.8555 208.039 80.8555C206.659 80.8555 205.799 80.4388 205.461 79.6055C205.363 79.3711 205.314 79.1107 205.314 78.8242C205.314 78.5378 205.383 78.2383 205.52 77.9258C205.656 77.6133 205.861 77.3333 206.135 77.0859C206.74 76.5195 207.518 76.2363 208.469 76.2363ZM211.115 94H205.461V81.8613H211.115V94ZM221.896 85.3184C221.766 85.2533 221.597 85.2207 221.389 85.2207C221.187 85.2207 220.962 85.2826 220.715 85.4062C220.467 85.5234 220.223 85.6862 219.982 85.8945C219.475 86.3372 219.048 86.8743 218.703 87.5059C218.358 88.1374 218.186 88.7201 218.186 89.2539C218.186 89.7812 218.387 90.1361 218.791 90.3184C218.934 90.3835 219.11 90.416 219.318 90.416C219.527 90.416 219.745 90.3542 219.973 90.2305C220.201 90.1003 220.428 89.9277 220.656 89.7129C221.132 89.2637 221.548 88.7201 221.906 88.082C222.264 87.4375 222.443 86.8613 222.443 86.3535C222.443 85.8457 222.261 85.5007 221.896 85.3184ZM220.002 94.3613C218.14 94.3613 216.535 93.7721 215.188 92.5938C213.749 91.3438 213.029 89.7715 213.029 87.877C213.029 85.9759 213.703 84.4232 215.051 83.2188C216.398 82.0078 218.062 81.4023 220.041 81.4023C222.02 81.4023 223.684 81.9948 225.031 83.1797C226.379 84.3581 227.056 85.9368 227.062 87.916C227.069 89.1855 226.747 90.3086 226.096 91.2852C225.445 92.2617 224.576 93.0169 223.488 93.5508C222.401 94.0846 221.239 94.3548 220.002 94.3613ZM237.678 86.4414C237.079 86.4414 236.464 86.6595 235.832 87.0957C235.201 87.5319 234.882 87.9453 234.875 88.3359V94H228.996V81.8613H234.875V83.1602C235.207 82.6589 235.617 82.2585 236.105 81.959C236.6 81.6595 237.124 81.4805 237.678 81.4219V86.4414ZM248.381 85.5039C246.936 85.1654 245.884 84.9961 245.227 84.9961C245.038 84.9961 244.891 85.0384 244.787 85.123C244.689 85.2077 244.641 85.3021 244.641 85.4062C244.641 85.6211 244.908 85.8392 245.441 86.0605C245.982 86.2754 246.477 86.487 246.926 86.6953C247.375 86.9036 247.762 87.1576 248.088 87.457C248.791 88.1081 249.143 89.0781 249.143 90.3672C249.143 91.6497 248.677 92.6361 247.746 93.3262C246.815 94.0163 245.555 94.3613 243.967 94.3613C242.378 94.3613 241.109 94.2148 240.158 93.9219C239.742 93.7982 239.423 93.6517 239.201 93.4824V89.8594C239.292 89.8659 239.452 89.9082 239.68 89.9863C239.908 90.0645 240.285 90.1882 240.812 90.3574C241.34 90.5202 241.818 90.6016 242.248 90.6016C242.684 90.6016 242.902 90.4421 242.902 90.123C242.902 89.8757 242.707 89.6348 242.316 89.4004C242.141 89.2962 241.942 89.1888 241.721 89.0781C240.803 88.6289 240.145 88.1113 239.748 87.5254C239.357 86.9329 239.162 86.2396 239.162 85.4453C239.162 84.0326 239.735 82.9779 240.881 82.2812C241.844 81.6953 243.104 81.4023 244.66 81.4023C245.747 81.4023 246.838 81.5098 247.932 81.7246C248.166 81.7702 248.316 81.8027 248.381 81.8223V85.5039Z" fill="black"/>
<defs>
<linearGradient id="paint0_linear_673_738" x1="104" y1="-9.39002e-07" x2="132.5" y2="174" gradientUnits="userSpaceOnUse">
<stop stop-color="#39291C"/>
<stop offset="1" stop-color="#D7A372"/>
</linearGradient>
</defs>
</svg>
