<svg width="265" height="174" viewBox="0 0 265 174" fill="none" xmlns="http://www.w3.org/2000/svg">
<rect width="265" height="174" fill="url(#paint0_linear_670_725)"/>
<path d="M61.1681 85.3333V93.6667H72.8348V85.3333H82.0015V102H52.0015V85.3333H61.1681ZM72.8348 72V80.3333H61.1681V72H72.8348Z" fill="black"/>
<path d="M112.111 94.3809C106.936 94.3809 104.348 92.1803 104.348 87.7793V78.4043H110.51V87.6035C110.51 88.528 110.819 89.1302 111.438 89.4102C111.652 89.5078 111.91 89.5566 112.209 89.5566C113.055 89.5566 113.589 89.153 113.811 88.3457C113.876 88.1048 113.908 87.8444 113.908 87.5645V78.4043H119.309V87.7793C119.309 92.1803 116.91 94.3809 112.111 94.3809ZM128.127 85.1621C127.606 85.1621 127.346 85.582 127.346 86.4219V94H121.545V81.8613H124.748L126.145 83.7559C126.665 83.0332 127.385 82.4603 128.303 82.0371C129.227 81.6139 130.09 81.4023 130.891 81.4023C132.362 81.4023 133.527 81.793 134.387 82.5742C135.253 83.3555 135.686 84.4036 135.686 85.7188V94H129.846V88.1406C129.846 86.1549 129.273 85.1621 128.127 85.1621ZM146.945 85.5039C145.5 85.1654 144.449 84.9961 143.791 84.9961C143.602 84.9961 143.456 85.0384 143.352 85.123C143.254 85.2077 143.205 85.3021 143.205 85.4062C143.205 85.6211 143.472 85.8392 144.006 86.0605C144.546 86.2754 145.041 86.487 145.49 86.6953C145.939 86.9036 146.327 87.1576 146.652 87.457C147.355 88.1081 147.707 89.0781 147.707 90.3672C147.707 91.6497 147.242 92.6361 146.311 93.3262C145.38 94.0163 144.12 94.3613 142.531 94.3613C140.943 94.3613 139.673 94.2148 138.723 93.9219C138.306 93.7982 137.987 93.6517 137.766 93.4824V89.8594C137.857 89.8659 138.016 89.9082 138.244 89.9863C138.472 90.0645 138.85 90.1882 139.377 90.3574C139.904 90.5202 140.383 90.6016 140.812 90.6016C141.249 90.6016 141.467 90.4421 141.467 90.123C141.467 89.8757 141.271 89.6348 140.881 89.4004C140.705 89.2962 140.507 89.1888 140.285 89.0781C139.367 88.6289 138.71 88.1113 138.312 87.5254C137.922 86.9329 137.727 86.2396 137.727 85.4453C137.727 84.0326 138.299 82.9779 139.445 82.2812C140.409 81.6953 141.669 81.4023 143.225 81.4023C144.312 81.4023 145.402 81.5098 146.496 81.7246C146.73 81.7702 146.88 81.8027 146.945 81.8223V85.5039ZM163.85 86.3047C163.843 88.1667 163.228 89.8268 162.004 91.2852C161.092 92.3724 159.852 93.1471 158.283 93.6094C157.469 93.8503 156.545 93.9805 155.51 94V97.1641H149.709V81.8613H152.912L154.27 83.7363C155.728 82.1803 157.261 81.4023 158.869 81.4023C160.477 81.4023 161.708 81.8646 162.561 82.7891C163.42 83.7135 163.85 84.8854 163.85 86.3047ZM158.43 85.5137C158.293 85.4616 158.124 85.4355 157.922 85.4355C157.512 85.4355 157.069 85.6732 156.594 86.1484C156.125 86.6172 155.764 87.1543 155.51 87.7598V90.5625C155.62 90.4844 155.783 90.3802 155.998 90.25C156.219 90.1133 156.46 89.9505 156.721 89.7617C158.257 88.668 159.025 87.5547 159.025 86.4219C159.025 85.9661 158.827 85.6634 158.43 85.5137ZM171.34 94H165.803V77.5645H171.34V94ZM175.061 92.9258C174.54 92.4375 174.123 91.8255 173.811 91.0898C173.505 90.3477 173.352 89.5501 173.352 88.6973C173.352 87.8444 173.436 87.1055 173.605 86.4805C173.944 85.237 174.536 84.1921 175.383 83.3457C175.786 82.929 176.236 82.5775 176.73 82.291C177.746 81.6986 178.817 81.4023 179.943 81.4023C181.076 81.4023 182.069 81.7767 182.922 82.5254C183.195 82.7663 183.433 83.043 183.635 83.3555L185.031 81.8613H188.234V94H185.031L183.635 91.9785C182.567 93.554 180.949 94.3451 178.781 94.3516C178.182 94.3581 177.541 94.2409 176.857 94C176.18 93.7656 175.581 93.4076 175.061 92.9258ZM182.971 85.543C182.736 85.4062 182.456 85.3379 182.131 85.3379C181.805 85.3379 181.46 85.4551 181.096 85.6895C180.738 85.9173 180.415 86.207 180.129 86.5586C179.491 87.3464 179.172 88.1471 179.172 88.9609C179.172 89.5339 179.348 89.9375 179.699 90.1719C180.025 90.3867 180.52 90.3574 181.184 90.084C181.854 89.804 182.45 89.4427 182.971 89V85.543ZM199.543 85.5039C198.098 85.1654 197.046 84.9961 196.389 84.9961C196.2 84.9961 196.053 85.0384 195.949 85.123C195.852 85.2077 195.803 85.3021 195.803 85.4062C195.803 85.6211 196.07 85.8392 196.604 86.0605C197.144 86.2754 197.639 86.487 198.088 86.6953C198.537 86.9036 198.924 87.1576 199.25 87.457C199.953 88.1081 200.305 89.0781 200.305 90.3672C200.305 91.6497 199.839 92.6361 198.908 93.3262C197.977 94.0163 196.717 94.3613 195.129 94.3613C193.54 94.3613 192.271 94.2148 191.32 93.9219C190.904 93.7982 190.585 93.6517 190.363 93.4824V89.8594C190.454 89.8659 190.614 89.9082 190.842 89.9863C191.07 90.0645 191.447 90.1882 191.975 90.3574C192.502 90.5202 192.98 90.6016 193.41 90.6016C193.846 90.6016 194.064 90.4421 194.064 90.123C194.064 89.8757 193.869 89.6348 193.479 89.4004C193.303 89.2962 193.104 89.1888 192.883 89.0781C191.965 88.6289 191.307 88.1113 190.91 87.5254C190.52 86.9329 190.324 86.2396 190.324 85.4453C190.324 84.0326 190.897 82.9779 192.043 82.2812C193.007 81.6953 194.266 81.4023 195.822 81.4023C196.91 81.4023 198 81.5098 199.094 81.7246C199.328 81.7702 199.478 81.8027 199.543 81.8223V85.5039ZM208.107 83.1602C208.986 81.9883 210.318 81.4023 212.102 81.4023C212.609 81.4023 213.15 81.5195 213.723 81.7539C214.296 81.9883 214.794 82.3268 215.217 82.7695C216.128 83.7135 216.584 84.9635 216.584 86.5195V94H210.744V88.7363C210.744 87.6882 210.575 86.8288 210.236 86.1582C209.898 85.4811 209.501 85.1426 209.045 85.1426C208.42 85.1426 208.107 85.569 208.107 86.4219V94H202.307V77.5645H208.107V83.1602Z" fill="black"/>
<defs>
<linearGradient id="paint0_linear_670_725" x1="132.5" y1="0" x2="132.5" y2="174" gradientUnits="userSpaceOnUse">
<stop stop-color="#EBF4AE"/>
<stop offset="1" stop-color="#758E66"/>
</linearGradient>
</defs>
</svg>
