<svg width="40" height="40" viewBox="0 0 40 40" fill="none" xmlns="http://www.w3.org/2000/svg">
<path d="M5.49068 19.5876C4.61881 18.3344 4.26881 17.1532 5.12193 16.4376C5.84381 15.8313 6.90631 15.7157 8.21881 17.2313C8.21881 17.2313 12.1407 21.7876 13.4907 23.0532C13.7969 23.3376 14.1782 23.3813 14.5251 23.0219C14.8188 22.7157 14.7126 22.4501 14.4626 22.0844C14.4626 22.0844 8.93443 13.8657 8.20943 12.8626C7.00006 11.1844 7.46568 10.1001 8.02506 9.58443C8.80318 8.86255 10.1719 8.7188 11.4438 10.4626L18.1376 19.4219C18.3407 19.6376 18.6688 19.6688 18.9094 19.5001L19.0032 19.4344C19.2501 19.2594 19.3219 18.9251 19.1719 18.6626C18.0001 16.6219 13.3376 8.49068 12.6532 7.00943C11.8657 5.30005 12.2032 4.4313 13.0376 3.92818C14.0282 3.3313 14.9594 3.37505 16.0719 5.02818C17.2782 6.82818 21.9626 14.4063 23.1532 16.4438C23.3094 16.7094 23.6438 16.8094 23.9188 16.6751C23.9219 16.6719 23.9282 16.6719 23.9313 16.6688C24.1938 16.5407 24.4313 16.2813 24.3219 15.9126C23.6719 13.7688 20.4813 7.0938 19.8126 5.55943C18.8969 3.46255 19.3438 2.75005 20.2907 2.2688C21.2844 1.76568 22.3188 2.16255 23.0219 3.56255C23.4969 4.51255 31.8376 19.6907 31.8376 19.6907C31.7157 17.4282 32.2876 15.8251 32.7751 14.2157C33.6626 11.2876 35.8094 9.76568 37.3657 10.4501C38.1751 10.8063 38.3219 11.5157 38.2344 12.0594C38.0594 13.1157 37.3157 16.3876 37.1719 18.9501C36.8344 24.9563 38.6501 31.8782 31.8844 36.2282C27.3563 39.1407 22.5032 38.6282 19.2969 36.3876C15.4094 33.6719 6.20318 20.6126 5.49068 19.5876Z" fill="#FFCA28"/>
<path d="M36.775 16.1781C36.2093 18.5562 36.1343 21.475 36.1531 22.7187C36.2281 27.5656 36.2031 31.7594 31.3437 35.5906C30.7468 36.0625 28.8749 37.2125 26.6968 37.8125C25.9968 38.0031 26.2625 38.2281 26.6937 38.1781C29.0718 37.9031 30.875 36.8781 31.8781 36.2312C38.6406 31.8812 36.9781 25.0062 37.3156 19C37.4593 16.4375 38.2406 12.4062 38.2281 12.0594C38.2125 11.7125 37.3406 13.8 36.775 16.1781ZM24.2281 16.4281C24.2281 16.4281 23.7437 16.4312 23.2843 15.7906C21.9062 13.875 17.5843 6.64061 16.3406 4.86561C14.9218 2.84061 13.6 3.61561 13.3 3.77811C13.3 3.77811 14.3875 3.81561 14.9875 4.70624C16.2125 6.52186 20.8562 14.6594 22.3218 16.4062C23.2687 17.5344 24.2281 16.4281 24.2281 16.4281ZM7.09683 17.0437C7.52183 17.5 11.2531 21.9281 12.6281 23.1625C13.8093 24.2219 14.6906 22.8719 14.6906 22.8719C14.6906 22.8719 14.2562 22.9312 13.6625 22.4844C12.1875 21.3687 8.6937 17.3906 7.9062 16.5531C6.73745 15.3094 5.64995 16.0875 5.4187 16.2281C5.42183 16.2281 6.09058 15.9687 7.09683 17.0437ZM19.2468 19.1437C19.2468 19.1437 18.8468 19.4344 18.1125 18.575C17.5781 17.9469 11.4437 10.4625 11.4437 10.4625C9.9062 8.58436 8.69683 9.14374 8.44683 9.28749C8.44683 9.28749 9.2187 9.24686 10.1218 10.2875C10.5343 10.7625 17.0812 19.1094 17.3437 19.3937C18.3031 20.4406 19.1906 19.5406 19.2468 19.1437Z" fill="#EDA600"/>
<path d="M31.8126 18.0719C31.8126 18.0719 23.6845 4.44377 23.1657 3.51565C22.0126 1.45627 20.672 2.08752 20.4438 2.19065C20.4438 2.19065 21.1907 1.97815 22.0688 3.4719C22.5376 4.26565 28.5095 15.0031 30.4157 18.4344C30.5657 19.075 30.5532 19.9094 30.072 20.4469C28.347 22.3813 26.147 24.3563 26.7938 29.2531C26.9563 30.4938 27.4157 31.6688 27.7563 32.2344C28.1876 32.9438 28.6845 32.675 28.4657 32.1438C28.3188 31.7844 28.0845 30.9375 28.0376 30.575C27.8188 28.8875 27.0813 25.9375 30.3876 22.4C30.947 21.8094 32.3688 20.025 31.8126 18.0719Z" fill="#EDA600"/>
<path d="M32.3406 9.67501C31.9062 8.13439 31.2312 6.72189 30.3562 5.49689C29.5687 4.39377 28.6156 3.44376 27.5281 2.68126C27.3906 2.58439 27.2156 2.28439 27.3656 1.99376C27.5156 1.70314 27.8406 1.74064 27.9625 1.79064C29.3219 2.35001 30.4344 3.31564 31.3531 4.64064C32.4437 6.21564 32.9844 7.70001 33.2625 9.35939C33.2937 9.54064 33.2875 9.92189 32.9 10.0219C32.5156 10.1219 32.3844 9.82501 32.3406 9.67501ZM30.2156 11.3281C29.7812 9.78751 29.1062 8.37501 28.2312 7.15001C27.4437 6.04689 26.4906 5.09689 25.4031 4.33439C25.2656 4.23751 25.0906 3.93751 25.2406 3.64689C25.3906 3.35314 25.7156 3.39376 25.8375 3.44376C27.1969 4.00314 28.3094 4.96876 29.2281 6.29376C30.3187 7.86876 30.8594 9.35314 31.1375 11.0125C31.1687 11.1938 31.1625 11.575 30.775 11.675C30.3937 11.775 30.2594 11.4813 30.2156 11.3281ZM2.67498 24.2063C3.21248 25.7156 3.97811 27.0781 4.93123 28.2438C5.79061 29.2906 6.80311 30.1781 7.93748 30.8688C8.08123 30.9563 8.27498 31.2438 8.14373 31.5438C8.01248 31.8469 7.68748 31.8281 7.55936 31.7875C6.16561 31.3188 4.99061 30.4281 3.98748 29.1656C2.79686 27.6656 2.15623 26.2219 1.76873 24.5844C1.72498 24.4031 1.70623 24.025 2.08748 23.9C2.46873 23.775 2.62186 24.0594 2.67498 24.2063ZM4.68436 22.4156C5.22186 23.925 5.98748 25.2875 6.94061 26.4531C7.79998 27.5 8.81248 28.3875 9.94686 29.0781C10.0906 29.1656 10.2844 29.4531 10.1531 29.7531C10.0219 30.0563 9.69686 30.0375 9.56873 29.9969C8.17498 29.5281 6.99998 28.6375 5.99686 27.375C4.80623 25.875 4.16561 24.4313 3.77811 22.7938C3.73436 22.6125 3.71561 22.2344 4.09686 22.1094C4.47811 21.9813 4.63123 22.2688 4.68436 22.4156Z" fill="#B0BEC5"/>
</svg>
